<?xml version="1.0" encoding="utf-8"?>
<!-- Generator: Adobe Illustrator 22.0.1, SVG Export Plug-In . SVG Version: 6.00 Build 0)  -->
<svg version="1.1" id="Layer_1" xmlns="http://www.w3.org/2000/svg" xmlns:xlink="http://www.w3.org/1999/xlink" x="0px" y="0px"
	 viewBox="0 0 863.5 864.1" style="enable-background:new 0 0 863.5 864.1;" xml:space="preserve">
<style type="text/css">
	.st0{fill:#F7C516;}
</style>
<g>
	<path d="M431.8,14.4c109.2,0,203.4,64.8,246.2,158h14.8c-14.1-32.5-34.3-62.4-60-88.1C579.1,30.6,507.7,1,431.8,1
		s-147.3,29.6-201,83.3c-25.8,25.8-46,55.7-60,88.1h14.8C228.3,79.2,322.5,14.4,431.8,14.4z"/>
	<path d="M684.4,383c-31.9,82.4-103,145.3-190.3,165.9c-20,4.7-40.9,7.2-62.3,7.2s-42.3-2.5-62.3-7.2
		C282.1,528.3,211,465.4,179.1,383l-15.7-3.4c13.9,39.7,36.7,76.1,67.3,106.7c38.7,38.7,86.6,64.9,138.7,76.5
		c20.2,4.5,41.1,6.8,62.3,6.8c21.2,0,42.1-2.3,62.3-6.8c52.1-11.6,100-37.8,138.7-76.5c30.6-30.6,53.4-67,67.3-106.7L684.4,383z"/>
	<path d="M836.5,192.1L851,326.4l-337.9,73.7l-22.5-207.8L836.5,192.1 M836.5,179.6L836.5,179.6l-345.9,0.3c-3.5,0-6.9,1.5-9.3,4.1
		s-3.5,6.1-3.1,9.7l22.5,207.8c0.4,3.5,2.2,6.7,5.1,8.8c2.1,1.5,4.7,2.3,7.3,2.3c0.9,0,1.8-0.1,2.7-0.3l337.9-73.7
		c6.2-1.4,10.4-7.2,9.7-13.5l-14.5-134.4C848.2,184.4,842.9,179.6,836.5,179.6L836.5,179.6z"/>
	<path class="st0" d="M514,306.6l9.7,81.6L829,319.3c5.6-1.3,9.7-7,9.1-12.7L514,306.6L514,306.6z"/>
	<path d="M829.1,296.1c-1.6,0-3.1-0.6-4.4-1.8l-21.5-21l-30.6,18.9c-2.3,1.4-5.3,1.2-7.4-0.6l-71.6-62.3l-87.9,61
		c-2.3,1.6-5.4,1.5-7.5-0.3l-90.7-74.7c-2.7-2.2-3-6.1-0.8-8.8c2.2-2.7,6.1-3,8.8-0.9l87.1,71.7l88-61c2.3-1.6,5.5-1.5,7.7,0.4
		l71.8,62.5l30.9-19c2.4-1.5,5.6-1.1,7.6,0.8l25,24.4c2.5,2.4,2.5,6.4,0.1,8.8C832.3,295.5,830.7,296.1,829.1,296.1z"/>
	<path class="st0" d="M495.2,408.5c-0.9-1.9-1.5-4-1.8-6.2l-9.5-88.2c-30.7,13.6-52.2,44.4-52.2,80.2c0-35.8-21.4-66.5-52.2-80.2
		l-9.5,88.2c-0.2,2.2-0.8,4.3-1.8,6.2c0.8,5.2,1.2,10.2,1.2,15.1c0,29.8,0,86.3,0,125.3c20,4.7,40.9,7.2,62.3,7.2s42.3-2.5,62.3-7.2
		c0-39,0-95.5,0-125.3C494.1,418.7,494.5,413.7,495.2,408.5z"/>
	<path d="M27,192.1l345.9,0.3l-22.5,207.8L12.5,326.4L27,192.1 M27,179.6c-6.4,0-11.7,4.8-12.4,11.1L0.1,325.1
		c-0.7,6.3,3.5,12.2,9.7,13.5l337.9,73.7c0.9,0.2,1.8,0.3,2.7,0.3c2.6,0,5.1-0.8,7.3-2.3c2.9-2.1,4.7-5.3,5.1-8.8l22.5-207.8
		c0.4-3.5-0.8-7-3.1-9.7c-2.4-2.6-5.7-4.1-9.3-4.1L27,179.6L27,179.6L27,179.6z"/>
	<path class="st0" d="M350.3,306.6l-9.7,81.6L35.2,319.3c-5.6-1.3-9.7-7-9.1-12.7L350.3,306.6L350.3,306.6z"/>
	<path d="M35.1,296.1c-1.6,0-3.2-0.6-4.5-1.9c-2.4-2.5-2.4-6.4,0.1-8.8l25-24.4c2-2,5.2-2.3,7.6-0.8l30.9,19l71.8-62.5
		c2.2-1.9,5.3-2,7.6-0.4l88,61l86.9-71.8c2.7-2.2,6.6-1.8,8.8,0.8c2.2,2.6,1.8,6.6-0.8,8.8L266,289.9c-2.2,1.8-5.2,1.9-7.5,0.3
		l-87.9-61L99,291.6c-2.1,1.8-5,2-7.4,0.6L61,273.4l-21.5,21C38.3,295.5,36.7,296.1,35.1,296.1z"/>
	<path d="M463.1,176.3c-1.5,0-3.1-0.6-4.3-1.7l-27-25.3L405,174.6c-2.5,2.4-6.5,2.2-8.8-0.3c-2.4-2.5-2.2-6.5,0.3-8.8l31.1-29.2
		c2.4-2.2,6.1-2.2,8.5,0l31.3,29.3c2.5,2.4,2.6,6.3,0.3,8.8C466.4,175.7,464.8,176.3,463.1,176.3z"/>
</g>
<g>
	<path d="M76.6,754.7h-55V639.2h53.6c23.6,0,38.1,11.7,38.1,29.9v0.3c0,13-6.9,20.3-15.2,24.9c13.4,5.1,21.6,12.9,21.6,28.4v0.3
		C119.8,744.2,102.6,754.7,76.6,754.7z M88.1,673.4c0-7.6-5.9-11.9-16.7-11.9h-25v24.4h23.4c11.2,0,18.3-3.6,18.3-12.2
		C88.1,673.7,88.1,673.4,88.1,673.4z M94.6,719.6c0-7.8-5.8-12.5-18.8-12.5H46.4v25.4h30.2c11.2,0,18-4,18-12.5
		C94.6,720,94.6,719.6,94.6,719.6z"/>
	<path d="M145.2,754.7V639.2h25.4v115.5H145.2z"/>
	<path d="M258.4,756.7c-36,0-60.7-25.2-60.7-59.4V697c0-32.8,25.6-59.7,60.6-59.7c20.8,0,33.3,5.6,45.4,15.8l-16,19.3
		c-8.9-7.4-16.8-11.7-30.2-11.7c-18.5,0-33.2,16.3-33.2,36v0.3c0,21.1,14.5,36.6,35,36.6c9.2,0,17.5-2.3,23.9-6.9v-16.5h-25.6v-21.9
		h50.2v50.1C295.9,748.5,279.5,756.7,258.4,756.7z"/>
	<path d="M429.4,756.4c-17.5,0-35.1-6.1-49-18.5l15-18c10.4,8.6,21.3,14,34.5,14c10.4,0,16.7-4.1,16.7-10.9v-0.3
		c0-6.4-4-9.7-23.3-14.7c-23.3-5.9-38.3-12.4-38.3-35.3v-0.3c0-21,16.8-34.8,40.4-34.8c16.8,0,31.2,5.3,42.9,14.7l-13.2,19.1
		c-10.2-7.1-20.3-11.4-30-11.4s-14.9,4.5-14.9,10.1v0.3c0,7.6,5,10.1,24.9,15.2c23.4,6.1,36.6,14.5,36.6,34.7v0.3
		C471.8,743.5,454.3,756.4,429.4,756.4z"/>
	<path d="M619.9,755.6h-22.1L571.7,680l-26.1,75.6h-22.1l-39.4-116.3h27.2l23.9,78.2l25.9-78.5H583l25.9,78.5l23.9-78.2h26.6
		L619.9,755.6z"/>
	<path d="M682.7,754.7V639.2h25.4v115.5H682.7z"/>
	<path d="M795.8,756.7c-36,0-60.7-25.2-60.7-59.4V697c0-32.8,25.6-59.7,60.6-59.7c20.8,0,33.3,5.6,45.4,15.8l-16,19.3
		c-8.9-7.4-16.8-11.7-30.2-11.7c-18.5,0-33.2,16.3-33.2,36v0.3c0,21.1,14.5,36.6,35,36.6c9.2,0,17.5-2.3,23.9-6.9v-16.5H795v-21.9
		h50.2v50.1C833.3,748.5,817,756.7,795.8,756.7z"/>
</g>
<g>
	<g>
		<path d="M242.1,863.1h-6.8v-53.5h-20.1v-6.2h46.9v6.2H242v53.5H242.1z"/>
		<path d="M332.6,864.1c-18.2,0-30.4-14.3-30.4-30.8s12.4-31,30.6-31s30.4,14.3,30.4,30.8C363.1,849.7,350.8,864.1,332.6,864.1z
			 M332.6,808.6c-13.7,0-23.4,10.9-23.4,24.6c0,13.7,9.9,24.8,23.6,24.8s23.4-10.9,23.4-24.6C356.1,819.7,346.2,808.6,332.6,808.6z"
			/>
		<path d="M460.4,837.6c0,17.4-10,26.5-24.9,26.5c-14.8,0-24.8-9-24.8-25.9v-34.8h6.7v34.3c0,12.9,6.8,20.1,18.3,20.1
			c11,0,18-6.7,18-19.7v-34.7h6.7L460.4,837.6L460.4,837.6z"/>
		<path d="M551.6,863.1l-17.3-23.2h-17.1v23.2h-6.7v-59.7h25.7c13.1,0,21.6,7.1,21.6,17.8c0,10-6.8,15.8-16.2,17.5l18.4,24.4H551.6z
			 M535.6,809.6h-18.4v24.2h18.4c9,0,15.4-4.6,15.4-12.4C550.9,814,545.3,809.6,535.6,809.6z"/>
		<path d="M627.7,830c13.3,2.9,19.5,7.8,19.5,17c0,10.3-8.5,17-20.4,17c-9.5,0-17.2-3.2-24.4-9.6l4.2-5c6.2,5.6,12.2,8.5,20.5,8.5
			c8,0,13.3-4.2,13.3-10.2c0-5.6-3-8.8-15.5-11.4c-13.7-3-20.1-7.4-20.1-17.3c0-9.6,8.3-16.4,19.6-16.4c8.7,0,14.9,2.5,21,7.3
			l-3.9,5.2c-5.5-4.5-11.1-6.5-17.2-6.5c-7.8,0-12.7,4.3-12.7,9.7C611.5,824,614.6,827.2,627.7,830z"/>
	</g>
</g>
</svg>
