<?xml version="1.0" encoding="utf-8"?>
<!-- Generator: Adobe Illustrator 22.0.1, SVG Export Plug-In . SVG Version: 6.00 Build 0)  -->
<svg version="1.1" id="Layer_1" xmlns="http://www.w3.org/2000/svg" xmlns:xlink="http://www.w3.org/1999/xlink" x="0px" y="0px"
	 viewBox="0 0 863.5 572" style="enable-background:new 0 0 863.5 572;" xml:space="preserve">
<style type="text/css">
	.st0{fill:#F7C516;}
</style>
<g>
	<path d="M431.8,14.4c109.2,0,203.4,64.8,246.2,158h14.8c-14.1-32.5-34.3-62.4-60-88.1C579.1,30.6,507.7,1,431.8,1
		s-147.3,29.6-201,83.3c-25.8,25.8-46,55.7-60,88.1h14.8C228.3,79.2,322.5,14.4,431.8,14.4z"/>
	<path d="M684.4,383c-31.9,82.4-103,145.3-190.3,165.9c-20,4.7-40.9,7.2-62.3,7.2s-42.3-2.5-62.3-7.2
		C282.1,528.3,211,465.4,179.1,383l-15.7-3.4c13.9,39.7,36.7,76.1,67.3,106.7c38.7,38.7,86.6,64.9,138.7,76.5
		c20.2,4.5,41.1,6.8,62.3,6.8c21.2,0,42.1-2.3,62.3-6.8c52.1-11.6,100-37.8,138.7-76.5c30.6-30.6,53.4-67,67.3-106.7L684.4,383z"/>
	<path d="M836.5,192.1L851,326.4l-337.9,73.7l-22.5-207.8L836.5,192.1 M836.5,179.6L836.5,179.6l-345.9,0.3c-3.5,0-6.9,1.5-9.3,4.1
		s-3.5,6.1-3.1,9.7l22.5,207.8c0.4,3.5,2.2,6.7,5.1,8.8c2.1,1.5,4.7,2.3,7.3,2.3c0.9,0,1.8-0.1,2.7-0.3l337.9-73.7
		c6.2-1.4,10.4-7.2,9.7-13.5l-14.5-134.4C848.2,184.4,842.9,179.6,836.5,179.6L836.5,179.6z"/>
	<path class="st0" d="M514,306.6l9.7,81.6L829,319.3c5.6-1.3,9.7-7,9.1-12.7L514,306.6L514,306.6z"/>
	<path d="M829.1,296.1c-1.6,0-3.1-0.6-4.4-1.8l-21.5-21l-30.6,18.9c-2.3,1.4-5.3,1.2-7.4-0.6l-71.6-62.3l-87.9,61
		c-2.3,1.6-5.4,1.5-7.5-0.3l-90.7-74.7c-2.7-2.2-3-6.1-0.8-8.8s6.1-3,8.8-0.9l87.1,71.7l88-61c2.3-1.6,5.5-1.5,7.7,0.4l71.8,62.5
		l30.9-19c2.4-1.5,5.6-1.1,7.6,0.8l25,24.4c2.5,2.4,2.5,6.4,0.1,8.8C832.3,295.5,830.7,296.1,829.1,296.1z"/>
	<path class="st0" d="M495.2,408.5c-0.9-1.9-1.5-4-1.8-6.2l-9.5-88.2c-30.7,13.6-52.2,44.4-52.2,80.2c0-35.8-21.4-66.5-52.2-80.2
		l-9.5,88.2c-0.2,2.2-0.8,4.3-1.8,6.2c0.8,5.2,1.2,10.2,1.2,15.1c0,29.8,0,86.3,0,125.3c20,4.7,40.9,7.2,62.3,7.2s42.3-2.5,62.3-7.2
		c0-39,0-95.5,0-125.3C494.1,418.7,494.5,413.7,495.2,408.5z"/>
	<path d="M27,192.1l345.9,0.3l-22.5,207.8L12.5,326.4L27,192.1 M27,179.6c-6.4,0-11.7,4.8-12.4,11.1L0.1,325.1
		c-0.7,6.3,3.5,12.2,9.7,13.5l337.9,73.7c0.9,0.2,1.8,0.3,2.7,0.3c2.6,0,5.1-0.8,7.3-2.3c2.9-2.1,4.7-5.3,5.1-8.8l22.5-207.8
		c0.4-3.5-0.8-7-3.1-9.7c-2.4-2.6-5.7-4.1-9.3-4.1L27,179.6L27,179.6L27,179.6z"/>
	<path class="st0" d="M350.3,306.6l-9.7,81.6L35.2,319.3c-5.6-1.3-9.7-7-9.1-12.7L350.3,306.6L350.3,306.6z"/>
	<path d="M35.1,296.1c-1.6,0-3.2-0.6-4.5-1.9c-2.4-2.5-2.4-6.4,0.1-8.8l25-24.4c2-2,5.2-2.3,7.6-0.8l30.9,19l71.8-62.5
		c2.2-1.9,5.3-2,7.6-0.4l88,61l86.9-71.8c2.7-2.2,6.6-1.8,8.8,0.8c2.2,2.6,1.8,6.6-0.8,8.8L266,289.9c-2.2,1.8-5.2,1.9-7.5,0.3
		l-87.9-61L99,291.6c-2.1,1.8-5,2-7.4,0.6L61,273.4l-21.5,21C38.3,295.5,36.7,296.1,35.1,296.1z"/>
	<path d="M463.1,176.3c-1.5,0-3.1-0.6-4.3-1.7l-27-25.3L405,174.6c-2.5,2.4-6.5,2.2-8.8-0.3c-2.4-2.5-2.2-6.5,0.3-8.8l31.1-29.2
		c2.4-2.2,6.1-2.2,8.5,0l31.3,29.3c2.5,2.4,2.6,6.3,0.3,8.8C466.4,175.7,464.8,176.3,463.1,176.3z"/>
</g>
</svg>
