<?xml version="1.0" encoding="utf-8"?>
<!-- Generator: Adobe Illustrator 22.0.1, SVG Export Plug-In . SVG Version: 6.00 Build 0)  -->
<svg version="1.1" id="Layer_1" xmlns="http://www.w3.org/2000/svg" xmlns:xlink="http://www.w3.org/1999/xlink" x="0px" y="0px"
	 viewBox="0 0 863.5 232.5" style="enable-background:new 0 0 863.5 232.5;" xml:space="preserve">
<g>
	<path d="M76.6,121.1h-55V5.6h53.6c23.6,0,38.1,11.7,38.1,29.9v0.3c0,13-6.9,20.3-15.2,24.9c13.4,5.1,21.6,12.9,21.6,28.4v0.3
		C119.8,110.6,102.6,121.1,76.6,121.1z M88.1,39.8c0-7.6-5.9-11.9-16.7-11.9h-25v24.4h23.4c11.2,0,18.3-3.6,18.3-12.2
		C88.1,40.1,88.1,39.8,88.1,39.8z M94.6,86c0-7.8-5.8-12.5-18.8-12.5H46.4v25.4h30.2c11.2,0,18-4,18-12.5C94.6,86.4,94.6,86,94.6,86
		z"/>
	<path d="M145.2,121.1V5.6h25.4v115.5H145.2z"/>
	<path d="M258.4,123.1c-36,0-60.7-25.2-60.7-59.4v-0.3c0-32.8,25.6-59.7,60.6-59.7c20.8,0,33.3,5.6,45.4,15.8l-16,19.3
		c-8.9-7.4-16.8-11.7-30.2-11.7c-18.5,0-33.2,16.3-33.2,36v0.3c0,21.1,14.5,36.6,35,36.6c9.2,0,17.5-2.3,23.9-6.9V76.6h-25.6V54.7
		h50.2v50.1C295.9,114.9,279.5,123.1,258.4,123.1z"/>
	<path d="M429.4,122.8c-17.5,0-35.1-6.1-49-18.5l15-18c10.4,8.6,21.3,14,34.5,14c10.4,0,16.7-4.1,16.7-10.9v-0.3
		c0-6.4-4-9.7-23.3-14.7C400,68.5,385,62,385,39.1v-0.3c0-21,16.8-34.8,40.4-34.8c16.8,0,31.2,5.3,42.9,14.7l-13.2,19.1
		c-10.2-7.1-20.3-11.4-30-11.4s-14.9,4.5-14.9,10.1v0.3c0,7.6,5,10.1,24.9,15.2c23.4,6.1,36.6,14.5,36.6,34.7V87
		C471.8,109.9,454.3,122.8,429.4,122.8z"/>
	<path d="M619.9,122h-22.1l-26.1-75.6L545.6,122h-22.1L484.1,5.7h27.2l23.9,78.2l25.9-78.5H583l25.9,78.5l23.9-78.2h26.6L619.9,122z
		"/>
	<path d="M682.7,121.1V5.6h25.4v115.5H682.7z"/>
	<path d="M795.8,123.1c-36,0-60.7-25.2-60.7-59.4v-0.3c0-32.8,25.6-59.7,60.6-59.7c20.8,0,33.3,5.6,45.4,15.8l-16,19.3
		c-8.9-7.4-16.8-11.7-30.2-11.7c-18.5,0-33.2,16.3-33.2,36v0.3c0,21.1,14.5,36.6,35,36.6c9.2,0,17.5-2.3,23.9-6.9V76.6H795V54.7
		h50.2v50.1C833.3,114.9,817,123.1,795.8,123.1z"/>
</g>
<g>
	<g>
		<path d="M242.1,229.5h-6.8V176h-20.1v-6.2h46.9v6.2H242v53.5H242.1z"/>
		<path d="M332.6,230.5c-18.2,0-30.4-14.3-30.4-30.8s12.4-31,30.6-31s30.4,14.3,30.4,30.8C363.1,216.1,350.8,230.5,332.6,230.5z
			 M332.6,175c-13.7,0-23.4,10.9-23.4,24.6c0,13.7,9.9,24.8,23.6,24.8s23.4-10.9,23.4-24.6C356.1,186.1,346.2,175,332.6,175z"/>
		<path d="M460.4,204c0,17.4-10,26.5-24.9,26.5c-14.8,0-24.8-9-24.8-25.9v-34.8h6.7v34.3c0,12.9,6.8,20.1,18.3,20.1
			c11,0,18-6.7,18-19.7v-34.7h6.7L460.4,204L460.4,204z"/>
		<path d="M551.6,229.5l-17.3-23.2h-17.1v23.2h-6.7v-59.7h25.7c13.1,0,21.6,7.1,21.6,17.8c0,10-6.8,15.8-16.2,17.5l18.4,24.4H551.6z
			 M535.6,176h-18.4v24.2h18.4c9,0,15.4-4.6,15.4-12.4C550.9,180.4,545.3,176,535.6,176z"/>
		<path d="M627.7,196.4c13.3,2.9,19.5,7.8,19.5,17c0,10.3-8.5,17-20.4,17c-9.5,0-17.2-3.2-24.4-9.6l4.2-5c6.2,5.6,12.2,8.5,20.5,8.5
			c8,0,13.3-4.2,13.3-10.2c0-5.6-3-8.8-15.5-11.4c-13.7-3-20.1-7.4-20.1-17.3c0-9.6,8.3-16.4,19.6-16.4c8.7,0,14.9,2.5,21,7.3
			l-3.9,5.2c-5.5-4.5-11.1-6.5-17.2-6.5c-7.8,0-12.7,4.3-12.7,9.7C611.5,190.4,614.6,193.6,627.7,196.4z"/>
	</g>
</g>
</svg>
