<?xml version="1.0" encoding="utf-8"?>
<!-- Generator: Adobe Illustrator 22.0.1, SVG Export Plug-In . SVG Version: 6.00 Build 0)  -->
<svg version="1.1" id="Layer_1" xmlns="http://www.w3.org/2000/svg" xmlns:xlink="http://www.w3.org/1999/xlink" x="0px" y="0px"
	 viewBox="0 0 792 612" style="enable-background:new 0 0 792 612;" xml:space="preserve">
<style type="text/css">
	.st0{clip-path:url(#SVGID_2_);fill:#F7C516;}
	.st1{clip-path:url(#SVGID_4_);fill:#F7C516;}
	.st2{clip-path:url(#SVGID_6_);fill:#F7C516;}

	@keyframes rightRoll {
    0% {
        transform: rotate(0deg);
        transform-origin: 50% 50%;
        
    }
    50% {
        transform: rotate(3deg);
        transform-origin: 50% 50%;
    }
    100% {
        transform: rotate(0deg);
        transform-origin: 50% 50%;
    }
	}
	
	@keyframes leftRoll {
    0% {
        transform: rotate(0deg);
        transform-origin: 50% 50%;      
    }
    50% {
        transform: rotate(-3deg);
        transform-origin: 50% 50%;
    }
    100% {
        transform: rotate(0deg);
        transform-origin: 50% 50%;
    }
	}
	
	@keyframes pourRoll {
    0% {
        transform: translateY(0px);
    }
    50% {
        transform: translateY(10px);
    }
    100% {
        transform: translateY(0px);
    }
	}


	.right-beer {
	  animation: rightRoll 2s ease-in-out infinite;
	}

	.left-beer {
	  animation: leftRoll 2s ease-in-out infinite;
	}

	.beer-pour {
		animation: pourRoll 2s ease-in-out infinite;
	}
</style>
<g class="left-beer">
	<path d="M756.9,218.8l13,119.9l-301.7,65.8L448.1,219L756.9,218.8 M756.9,207.6C756.9,207.6,756.9,207.6,756.9,207.6l-308.8,0.2
		c-3.2,0-6.2,1.4-8.3,3.7c-2.1,2.4-3.1,5.5-2.8,8.6l20.1,185.5c0.3,3.1,2,6,4.6,7.8c1.9,1.4,4.2,2.1,6.5,2.1c0.8,0,1.6-0.1,2.4-0.3
		l301.7-65.8c5.6-1.2,9.3-6.4,8.7-12.1l-13-119.9C767.3,211.9,762.6,207.6,756.9,207.6L756.9,207.6z"/>
	<g>
		<defs>
			<path id="SVGID_1_" d="M468.9,321l8.7,72.9l272.6-61.5c5-1.1,8.7-6.2,8.1-11.3H468.9z"/>
		</defs>
		<clipPath id="SVGID_2_">
			<use xlink:href="#SVGID_1_"  style="overflow:hidden;"/>
		</clipPath>
		<rect x="468.5" y="321" class="st0" width="290.4" height="72.9"/>
	</g>
	<path d="M750.3,311.7c-1.4,0-2.8-0.5-3.9-1.6l-19.2-18.7l-27.4,16.8c-2.1,1.3-4.7,1.1-6.6-0.5L629.4,252l-78.4,54.4
		c-2,1.4-4.8,1.3-6.7-0.3l-81-66.7c-2.4-2-2.7-5.5-0.8-7.8c2-2.4,5.5-2.7,7.8-0.8l77.7,64l78.5-54.5c2.1-1.4,4.9-1.3,6.8,0.4
		l64.1,55.8l27.6-17c2.2-1.3,5-1,6.8,0.8l22.3,21.7c2.2,2.1,2.2,5.7,0.1,7.9C753.2,311.1,751.7,311.7,750.3,311.7z"/>
</g>

<g class="beer-pour">
	<defs>
		<path id="SVGID_3_" d="M452.2,412c-0.8-1.7-1.4-3.6-1.6-5.6l-8.5-78.7c-27.4,12.2-46.6,39.6-46.6,71.6c0-31.9-19.1-59.4-46.6-71.6
			l-8.5,78.7c-0.2,1.9-0.8,3.8-1.6,5.6c0.7,4.6,1,9.1,1,13.5c0,26.6,0,77.1,0,111.9c17.9,4.2,36.5,6.4,55.6,6.4
			c19.1,0,37.8-2.2,55.6-6.4c0-34.8,0-85.2,0-111.9C451.2,421.1,451.5,416.6,452.2,412z"/>
	</defs>
	<clipPath id="SVGID_4_">
		<use xlink:href="#SVGID_3_"  style="overflow:visible;"/>
	</clipPath>
	<rect x="338.9" y="323" class="st1" width="113.3" height="224.6"/>
</g>

<g class="right-beer">
	<path d="M34.2,218.8L343,219l-20.1,185.5L21.2,338.7L34.2,218.8 M34.2,207.6c-5.7,0-10.5,4.3-11.1,9.9l-13,119.9
		c-0.6,5.7,3.1,10.9,8.7,12.1l301.7,65.8c0.8,0.2,1.6,0.3,2.4,0.3c2.3,0,4.6-0.7,6.5-2.1c2.6-1.8,4.2-4.7,4.6-7.8l20.1-185.5
		c0.3-3.1-0.7-6.3-2.8-8.6c-2.1-2.4-5.1-3.7-8.3-3.7L34.2,207.6C34.2,207.6,34.2,207.6,34.2,207.6L34.2,207.6z"/>
	<g>
		<defs>
			<path id="SVGID_5_" d="M322.8,321l-8.7,72.9L41.5,332.3c-5-1.1-8.7-6.2-8.1-11.3H322.8z"/>
		</defs>
		<clipPath id="SVGID_6_">
			<use xlink:href="#SVGID_5_"  style="overflow:visible;"/>
		</clipPath>
		<rect x="32.8" y="321" class="st2" width="290.4" height="72.9"/>
	</g>
	<path d="M41.5,311.7c-1.4,0-2.9-0.6-4-1.7c-2.1-2.2-2.1-5.7,0.1-7.9l22.3-21.7c1.8-1.8,4.6-2.1,6.8-0.8l27.6,17l64.1-55.8
		c1.9-1.7,4.7-1.8,6.8-0.4l78.5,54.5l77.6-64.1c2.4-2,5.9-1.6,7.8,0.8c2,2.4,1.6,5.9-0.7,7.8l-80.8,66.8c-1.9,1.6-4.7,1.7-6.7,0.3
		L162.4,252l-63.9,55.6c-1.8,1.6-4.5,1.8-6.6,0.5l-27.4-16.8l-19.2,18.7C44.3,311.1,42.9,311.7,41.5,311.7z"/>
</g>

<path class="beer-pour" d="M423.5,204.8c-1.4,0-2.7-0.5-3.8-1.5l-24.1-22.6l-24,22.5c-2.2,2.1-5.8,2-7.9-0.3c-2.1-2.2-2-5.8,0.2-7.9l27.8-26.1
		c2.1-2,5.5-2,7.6,0l27.9,26.1c2.2,2.1,2.4,5.6,0.3,7.9C426.5,204.2,425,204.8,423.5,204.8z"/>

<g class="border-circle">		
	<path d="M621.1,389.3c-28.5,73.6-91.9,129.7-169.9,148.1c-17.9,4.2-36.5,6.4-55.6,6.4c-19.1,0-37.8-2.2-55.6-6.4
		c-78-18.4-141.4-74.5-169.9-148.1l-14-3.1c12.4,35.4,32.7,67.9,60.1,95.2c34.5,34.5,77.3,57.9,123.8,68.3c18.1,4,36.7,6.1,55.6,6.1
		c18.9,0,37.6-2.1,55.6-6.1c46.5-10.4,89.3-33.7,123.8-68.3c27.3-27.3,47.7-59.8,60.1-95.2L621.1,389.3z"/>
	<path d="M395.6,60.2c97.6,0,181.6,57.8,219.8,141l13.2,0c-12.5-29-30.6-55.7-53.6-78.7c-47.9-47.9-111.7-74.3-179.5-74.3
		S264,74.6,216.1,122.5c-23,23-41.1,49.7-53.6,78.7l13.2,0C213.9,118,298,60.2,395.6,60.2z"/>
</g>
</svg>
