<svg version="1.1" xmlns="http://www.w3.org/2000/svg" xmlns:xlink="http://www.w3.org/1999/xlink" viewBox="0 0 499 67.4">
	<style type="text/css">
		.st0{fill:#FFFFFF;}
	</style>
	<polygon class="st0" points="499,24.5 393.8,24.5 406.1,12.3 393.9,0 369.2,24.5 332.8,24.5 345.1,12.3 332.9,0 308.2,24.5 
		271.2,24.5 283.4,12.3 271.2,0 246.5,24.5 209.1,24.5 221.4,12.3 209.1,0 184.4,24.5 147.2,24.5 159.5,12.3 147.3,0 122.6,24.5 
		0,24.5 0,41.8 105,41.8 91.6,55.1 103.9,67.4 129.7,41.8 166.9,41.8 153.5,55.1 165.7,67.4 191.6,41.8 229,41.8 215.6,55.1 
		227.8,67.4 253.6,41.8 290.7,41.8 277.3,55.1 289.5,67.4 315.3,41.8 351.7,41.8 338.3,55.1 350.5,67.4 376.3,41.8 499,41.8 "/>
</svg>
