<svg version="1.1" xmlns="http://www.w3.org/2000/svg" xmlns:xlink="http://www.w3.org/1999/xlink" viewBox="0 0 1000 1000">
	<style type="text/css">
		.st1{fill:#010101;}
		.st2{fill:#60C196;}
	</style>
	<g>
		<path class="st1" d="M242.5,207.6c0-13.4,8.8-22.5,23.3-22.5c8.2,0,14.7,3.3,18.5,8.3l-6.5,5.9c-2.5-3.4-6.6-5.8-11.8-5.8
			c-8.7,0-14.1,5.5-14.1,14c0,8.7,5.3,14.3,13.9,14.3c5.7,0,9.8-2.7,12.2-5.9l6.5,5.8c-3.9,5.1-10.4,8.4-18.9,8.4
			C251.1,230.1,242.5,221.2,242.5,207.6z"/>
		<path class="st1" d="M334.4,210.4h-34.9c1,7.4,6.1,11.8,14,11.8c5.6,0,10.2-2.1,13.3-5.8l6.1,5c-3.9,5.4-10.2,8.8-20,8.8
			c-14.3,0-22.9-8.9-22.9-22.6c0-13.7,9-22.5,22.3-22.5c14.9,0,22.2,9.4,22.2,22.8C334.5,208.7,334.4,210.4,334.4,210.4z
			 M299.7,203.4h25.4c-0.7-5.8-4.6-10.6-12.8-10.6C306,192.8,301,196.4,299.7,203.4z"/>
		<path class="st1" d="M342.9,186h9.4v7c2.9-4.8,7.4-7.8,13.6-8c1.2,0,2.6,0.1,3.6,0.6v10.1c-2-0.7-3.8-1-5.5-1
			c-8.1,0-11.7,6.6-11.7,13.3v21.3h-9.4V186z"/>
		<path class="st1" d="M378.6,215.8v-22.1h-6.5V186h6.5V169h9.3V186h13.5v7.7h-13.5v20.7c0,5.4,1.3,7.8,6.3,7.8c1.8,0,4.6-0.2,7.1-1
			v7.7c-2,0.7-5.6,1.4-9.8,1.4C381.9,230.3,378.6,225.5,378.6,215.8z"/>
		<path class="st1" d="M407.9,173.2c0-3.4,2.8-6,6.2-6s6.1,2.6,6.1,6c0,3.4-2.7,6-6.1,6S407.9,176.5,407.9,173.2z M409.2,186h9.5
			v43.3h-9.5V186z"/>
		<path class="st1" d="M432,193.6h-6.5V186h6.5v-2.8c0-9.7,4.8-15.1,13.8-15.1c2.9,0,5.6,0.4,7.9,1.4v7.4c-2.3-0.7-4.2-1-5.8-1
			c-4.6,0-6.6,2.6-6.6,8.4v1.8h26v43.3h-9.6v-35.7h-16.4v35.7H432V193.6z M456.4,173.2c0-3.4,2.8-6,6.2-6c3.4,0,6.1,2.6,6.1,6
			c0,3.4-2.7,6-6.1,6C459.2,179.2,456.4,176.5,456.4,173.2z"/>
		<path class="st1" d="M476,207.6c0-13.4,8.8-22.5,23.3-22.5c8.2,0,14.7,3.3,18.5,8.3l-6.5,5.9c-2.5-3.4-6.6-5.8-11.8-5.8
			c-8.7,0-14.1,5.5-14.1,14c0,8.7,5.3,14.3,13.9,14.3c5.7,0,9.8-2.7,12.2-5.9l6.5,5.8c-3.9,5.1-10.4,8.4-18.9,8.4
			C484.6,230.1,476,221.2,476,207.6z"/>
		<path class="st1" d="M523.5,207.6c0-13.8,8.2-22.5,21.6-22.5c5,0,9.6,1.3,13.5,4.2V186h9.3v43.3h-9.3v-3.6c-3.4,3-8.3,4.5-13.5,4.5
			C531.6,230.2,523.5,221.4,523.5,207.6z M558.7,217.3v-19.4c-3-3.2-7.7-4.6-11.8-4.6c-8.5,0-13.7,5.3-13.7,14.1
			c0,9,5.1,14.5,13.7,14.5C550.9,221.9,555.6,220.7,558.7,217.3z"/>
		<path class="st1" d="M580.5,215.8v-22.1H574V186h6.5V169h9.3V186h13.5v7.7h-13.5v20.7c0,5.4,1.3,7.8,6.3,7.8c1.8,0,4.6-0.2,7.1-1
			v7.7c-2,0.7-5.6,1.4-9.8,1.4C583.8,230.3,580.5,225.5,580.5,215.8z"/>
		<path class="st1" d="M650.5,210.4h-34.9c1,7.4,6.1,11.8,14,11.8c5.6,0,10.2-2.1,13.3-5.8l6.1,5c-3.9,5.4-10.2,8.8-20,8.8
			c-14.3,0-22.9-8.9-22.9-22.6c0-13.7,9-22.5,22.3-22.5c14.9,0,22.2,9.4,22.2,22.8C650.6,208.7,650.5,210.4,650.5,210.4z
			 M615.7,203.4h25.4c-0.7-5.8-4.6-10.6-12.8-10.6C622,192.8,617.1,196.4,615.7,203.4z"/>
		<path class="st1" d="M674.1,207.6c0-13.6,9.4-22.5,23.8-22.5s23.7,9,23.7,22.5c0,13.7-9.3,22.6-23.7,22.6S674.1,221.3,674.1,207.6z
			 M712,207.6c0-8.5-5.6-14.2-14.1-14.2c-8.6,0-14.1,5.8-14.1,14.2c0,8.6,5.6,14.3,14.1,14.3C706.4,221.9,712,216.1,712,207.6z"/>
		<path class="st1" d="M731.6,193.6h-6.5V186h6.5v-3c0-9.6,4.8-15,13.4-15c3.4,0,6.2,0.5,8.7,1.4v7.4c-2.5-0.7-4.6-1-6.2-1
			c-4.6,0-6.6,2.6-6.6,8.4v1.8h12.4v7.7h-12.4v35.7h-9.3V193.6z"/>
		<path class="st1" d="M272.5,297.2h-46.2c1.4,9.9,8.1,15.6,18.6,15.6c7.4,0,13.5-2.8,17.6-7.7l8.1,6.7c-5.2,7.1-13.6,11.7-26.5,11.7
			c-19,0-30.4-11.8-30.4-30c0-18.1,12-29.9,29.6-29.9c19.7,0,29.5,12.5,29.5,30.2C272.6,294.9,272.5,297.2,272.5,297.2z M226.4,287.9
			h33.7c-1-7.7-6-14-17-14C234.8,273.9,228.2,278.5,226.4,287.9z"/>
		<path class="st1" d="M321.9,322.2l-15.1-19.7l-15,19.7h-14.4l22-29.2l-21.7-28.3h14.8l14.3,19.5l14.6-19.5h14.7L314.6,293l22,29.3
			H321.9z"/>
		<path class="st1" d="M339.2,293.4c0-17.7,11.7-29.8,31-29.8c10.8,0,19.5,4.3,24.5,11l-8.6,7.8c-3.3-4.5-8.8-7.7-15.6-7.7
			c-11.6,0-18.7,7.3-18.7,18.6c0,11.6,7,19,18.5,19c7.5,0,13-3.6,16.2-7.8l8.6,7.7c-5.2,6.8-13.8,11.1-25.1,11.1
			C350.6,323.3,339.2,311.5,339.2,293.4z"/>
		<path class="st1" d="M461.2,297.2H415c1.4,9.9,8.1,15.6,18.6,15.6c7.4,0,13.5-2.8,17.6-7.7l8.1,6.7c-5.2,7.1-13.6,11.7-26.5,11.7
			c-19,0-30.4-11.8-30.4-30c0-18.1,12-29.9,29.6-29.9c19.7,0,29.5,12.5,29.5,30.2C461.3,294.9,461.2,297.2,461.2,297.2z M415.1,287.9
			h33.7c-1-7.7-6-14-17-14C423.4,273.9,416.9,278.5,415.1,287.9z"/>
		<path class="st1" d="M472.4,242.3h12.6v80h-12.6V242.3z"/>
		<path class="st1" d="M499.9,242.3h12.6v80h-12.6V242.3z"/>
		<path class="st1" d="M583.1,297.2h-46.2c1.4,9.9,8.1,15.6,18.6,15.6c7.4,0,13.5-2.8,17.6-7.7l8.1,6.7c-5.2,7.1-13.6,11.7-26.5,11.7
			c-19,0-30.4-11.8-30.4-30c0-18.1,12-29.9,29.6-29.9c19.7,0,29.5,12.5,29.5,30.2C583.2,294.9,583.1,297.2,583.1,297.2z M536.9,287.9
			h33.7c-1-7.7-6-14-17-14C545.3,273.9,538.7,278.5,536.9,287.9z"/>
		<path class="st1" d="M594.3,264.7h12.2v4.7c5.4-3.3,13.7-5.9,20.7-5.9c14.8,0,20.6,6,20.6,24.6v34.2h-12.4v-32.8
			c0-11.7-4.3-14.8-12.5-14.8c-6.7,0-12.2,2.3-16.1,5.3v42.3h-12.4V264.7z"/>
		<path class="st1" d="M658,293.4c0-17.7,11.7-29.8,31-29.8c10.8,0,19.5,4.3,24.5,11l-8.6,7.8c-3.3-4.5-8.8-7.7-15.6-7.7
			c-11.6,0-18.7,7.3-18.7,18.6c0,11.6,7,19,18.5,19c7.5,0,13-3.6,16.2-7.8l8.6,7.7c-5.2,6.8-13.8,11.1-25.1,11.1
			C669.4,323.3,658,311.5,658,293.4z"/>
		<path class="st1" d="M780,297.2h-46.2c1.4,9.9,8.1,15.6,18.6,15.6c7.4,0,13.5-2.8,17.6-7.7l8.1,6.7c-5.2,7.1-13.6,11.7-26.5,11.7
			c-19,0-30.4-11.8-30.4-30c0-18.1,12-29.9,29.6-29.9c19.7,0,29.5,12.5,29.5,30.2C780.1,294.9,780,297.2,780,297.2z M733.9,287.9
			h33.7c-1-7.7-6-14-17-14C742.3,273.9,735.7,278.5,733.9,287.9z"/>
	</g>
	<path class="st2" d="M177.1,688h14.8c-28.4-32.6-51.4-69.2-68.3-109.2c-21.3-50.4-32.1-103.9-32.1-159s10.8-108.7,32.1-159
		c20.6-48.6,50-92.3,87.6-129.9c37.5-37.5,81.2-67,129.9-87.6c50.4-21.3,103.9-32.1,159-32.1c55.2,0,108.7,10.8,159,32.1
		c48.6,20.6,92.3,50,129.9,87.6c37.5,37.5,67,81.2,87.6,129.9c21.3,50.4,32.1,103.9,32.1,159s-10.8,108.7-32.1,159
		c-16.9,40-39.8,76.6-68.3,109.2h14.8c26.3-31.6,47.7-66.7,63.9-104.8c21.9-51.8,33-106.7,33-163.4s-11.1-111.6-33-163.4
		c-21.1-50-51.4-94.9-90-133.4c-38.6-38.6-83.4-68.8-133.4-90C611.6,11.1,556.7,0,500,0c-56.7,0-111.6,11.1-163.4,33
		c-50,21.1-94.9,51.4-133.4,90c-38.6,38.6-68.8,83.4-90,133.4c-21.9,51.8-33,106.7-33,163.4s11.1,111.6,33,163.4
		C129.3,621.3,150.7,656.4,177.1,688z"/>
	<g>
		<path class="st1" d="M798.5,807.4c-2.4,0-4.4,2-4.4,4.4s2,4.4,4.4,4.4c2.4,0,4.4-2,4.4-4.4C802.9,809.4,800.9,807.4,798.5,807.4z
			 M798.5,815.5c-2,0-3.7-1.7-3.7-3.7c0-2,1.7-3.7,3.7-3.7s3.7,1.7,3.7,3.7l0,0C802.2,813.9,800.5,815.5,798.5,815.5z M799.9,811.1
			c0-0.8-0.6-1.3-1.4-1.3h-1.4v4h0.7v-1.5h0.7l0.7,1.5h0.7l-0.8-1.6C799.6,812,799.9,811.6,799.9,811.1z M798.5,811.7h-0.7v-1.3h0.7
			c0.5,0,0.7,0.2,0.7,0.7S798.9,811.7,798.5,811.7z M267.9,762.9v-10.6h-16.3v63.4h16.3v-38c0-6.9,4.4-10.2,11.3-10.2h8.9v-15.1h-7.6
			C274.6,752.2,269.4,755.3,267.9,762.9z M303.5,727.2c-5.6,0-9.9,4.4-9.9,10c0,5.4,4.4,9.9,9.9,9.9s9.9-4.4,9.9-9.9
			C313.3,731.6,309.1,727.2,303.5,727.2L303.5,727.2z M295.3,815.6h16.3v-63.4h-16.3L295.3,815.6z M389.2,783.9
			c0,18.1-14.7,32.7-32.7,32.7c-6.9,0-13.7-2.2-19.2-6.4v24H321v-81.9h16.3v5.4c5.5-4.2,12.3-6.5,19.2-6.4
			C374.6,751.2,389.2,765.8,389.2,783.9L389.2,783.9z M372.8,783.9c0-9.8-8-17.8-17.8-17.8c-9.8,0-17.8,8-17.8,17.8
			c0,9.8,8,17.8,17.8,17.8c0,0,0,0,0,0C364.8,801.7,372.8,793.7,372.8,783.9C372.8,783.9,372.8,783.9,372.8,783.9L372.8,783.9z
			 M672.3,778.3l-9.5-2.6c-6.3-1.6-8.7-3.5-8.7-6.8c0-3.2,3.4-5.5,8.3-5.5c4.7,0,8.3,3.1,8.3,7v0.4h15v-0.4
			c0-11.5-9.4-19.2-23.3-19.2c-13.8,0-23.9,7.7-23.9,18.4c0,8.3,5.5,14.5,15.1,17.1l9.1,2.5c6.9,1.9,9.5,4,9.5,7.8
			c0,4-3.7,6.7-9.2,6.7c-5.8,0-9.6-3.6-9.6-9.1v-0.4h-15.9v0.4c0,13,10.5,22.1,25.4,22.1c14.4,0,24.9-8.9,24.9-21.1
			C687.8,789.6,685.1,781.7,672.3,778.3L672.3,778.3z M447,752.2h16.3v63.4H447v-5.4c-5.5,4.2-12.3,6.5-19.2,6.4
			c-18.1,0-32.7-14.7-32.7-32.7s14.7-32.7,32.7-32.7c6.9,0,13.7,2.2,19.2,6.4V752.2z M447,783.9L447,783.9c0-9.8-8-17.8-17.8-17.8
			c-9.8,0-17.8,8-17.8,17.8c0,9.8,8,17.8,17.8,17.8C439,801.7,447,793.7,447,783.9C447,783.9,447,783.9,447,783.9L447,783.9z
			 M522.1,729.7h16.3v85.9h-16.3v-5.4c-5.5,4.2-12.3,6.5-19.2,6.4c-18.1,0-32.7-14.7-32.7-32.7s14.7-32.7,32.7-32.7
			c6.9,0,13.7,2.2,19.2,6.4V729.7z M522.1,783.9c0-9.8-8-17.8-17.8-17.8c-9.8,0-17.8,8-17.8,17.8s8,17.8,17.8,17.8
			C514.1,801.7,522.1,793.7,522.1,783.9C522.1,783.9,522.1,783.9,522.1,783.9L522.1,783.9z M614,815.6h16.3v-63.4H614V815.6z
			 M622.2,727.2c-5.6,0-9.9,4.4-9.9,10c0,5.4,4.4,9.9,9.9,9.9c5.4,0,9.9-4.4,9.9-9.9c0,0,0,0,0,0C632,731.6,627.8,727.2,622.2,727.2
			L622.2,727.2z M758.2,783.9c0,18.1-14.7,32.7-32.7,32.7c-18.1,0-32.7-14.7-32.7-32.7c0-18.1,14.7-32.7,32.7-32.7
			C743.5,751.2,758.2,765.8,758.2,783.9L758.2,783.9z M743.2,783.9c0-9.8-8-17.8-17.8-17.8c-9.8,0-17.8,8-17.8,17.8s8,17.8,17.8,17.8
			l0,0C735.3,801.7,743.2,793.7,743.2,783.9C743.2,783.9,743.2,783.9,743.2,783.9L743.2,783.9z M259.6,729.7h-62.5v14.5h23.1v71.4
			h16.2v-71.4h23.1L259.6,729.7z M575.6,798.2l-14.5-46H544l21.7,63.4h19.6l21.9-63.4h-17.1L575.6,798.2z M782.1,762.9v-10.6h-16.3
			v63.4h16.3v-38c0-6.9,4.4-10.3,11.3-10.3h8.9v-15.1h-7.6C788.7,752.2,783.5,755.3,782.1,762.9L782.1,762.9z"/>
	</g>
	<g>
		<path class="st1" d="M141,948.2v10H88.8v-2.9c1.2-11.7,8.6-19.5,23.1-28.5c7.5-4.6,17-9.5,16.8-17.5c-0.1-6.6-5.7-10-12.7-10
			c-8.5,0-15,5.3-15.2,13.9v1.5H89.6v-2.3c0.1-14.2,10.9-23.3,26.7-23.3c13.6,0,24.5,6.6,24.5,19.9c0,12.5-10,19.2-22.6,25.9
			c-8.8,5-13.7,8.7-16.2,13.3H141z"/>
		<path class="st1" d="M148.3,924.3c0-22.2,11.8-35.3,30.9-35.3c19.2,0,30.9,13.1,30.9,35.3c0,22.1-11.8,35.2-30.9,35.2
			C160,959.5,148.3,946.4,148.3,924.3z M198.2,924.3c0-15.6-7.2-24.8-19-24.8c-11.7,0-19,9.2-19,24.8c0,15.5,7.3,24.7,19,24.7
			C191,949,198.2,939.8,198.2,924.3z"/>
		<path class="st1" d="M228.5,901.3l-13.3,2.9l-2.4-9.1l21.7-5.1h5.9v68.2h-11.9V901.3z"/>
		<path class="st1" d="M301.1,890.3v5.4l-33.2,62.5h-13l31.1-58h-34.6v-9.9H301.1z"/>
		<path class="st2" d="M331.3,926.2c0-6.6,5.4-11.9,11.9-11.9c6.6,0,11.9,5.3,11.9,11.9c0,6.6-5.3,11.9-11.9,11.9
			C336.7,938.1,331.3,932.8,331.3,926.2z"/>
		<path class="st1" d="M437.8,948.2v10h-52.2v-2.9c1.2-11.7,8.6-19.5,23.1-28.5c7.5-4.6,17-9.5,16.8-17.5c-0.1-6.6-5.7-10-12.7-10
			c-8.5,0-15,5.3-15.2,13.9v1.5h-11.2v-2.3c0.1-14.2,10.9-23.3,26.7-23.3c13.6,0,24.5,6.6,24.5,19.9c0,12.5-10,19.2-22.6,25.9
			c-8.8,5-13.7,8.7-16.2,13.3H437.8z"/>
		<path class="st1" d="M445.1,924.3c0-22.2,11.8-35.3,30.9-35.3c19.2,0,30.9,13.1,30.9,35.3c0,22.1-11.8,35.2-30.9,35.2
			C456.8,959.5,445.1,946.4,445.1,924.3z M495,924.3c0-15.6-7.2-24.8-19-24.8c-11.7,0-19,9.2-19,24.8c0,15.5,7.3,24.7,19,24.7
			C487.8,949,495,939.8,495,924.3z"/>
		<path class="st1" d="M525.2,901.3l-13.3,2.9l-2.4-9.1l21.7-5.1h5.9v68.2h-11.9V901.3z"/>
		<path class="st1" d="M605.4,938.9c0,14.5-11.8,20.6-27.9,20.6c-16.4,0-28-6.2-28-20.4c0-8.2,5.3-15,13.7-17.2
			c-6.4-2.2-10.5-7.6-10.5-14.7c0-12.4,10.8-18,24.9-18s24.9,5.6,24.9,18c0,7.1-4.3,12.3-10.6,14.6
			C600.1,923.9,605.4,930.9,605.4,938.9z M593.6,938.3c0-6.9-6.5-11.5-16.1-11.5c-9.7,0-16.2,4.3-16.2,11.5c0,8.2,6.7,11.4,16.2,11.4
			C586.8,949.7,593.6,946.5,593.6,938.3z M563.5,908.2c0,5.7,4.9,9.6,14,9.6c9.1,0,13.9-4,13.9-9.6c0-6.6-5.3-9.5-13.9-9.5
			C568.8,898.7,563.5,901.6,563.5,908.2z"/>
		<path class="st2" d="M636.3,926.2c0-6.6,5.4-11.9,11.9-11.9c6.6,0,11.9,5.3,11.9,11.9c0,6.6-5.3,11.9-11.9,11.9
			C641.7,938.1,636.3,932.8,636.3,926.2z"/>
		<path class="st1" d="M742.8,948.2v10h-52.2v-2.9c1.2-11.7,8.6-19.5,23.1-28.5c7.5-4.6,17-9.5,16.8-17.5c-0.1-6.6-5.7-10-12.7-10
			c-8.5,0-15,5.3-15.2,13.9v1.5h-11.2v-2.3c0.1-14.2,10.9-23.3,26.7-23.3c13.6,0,24.5,6.6,24.5,19.9c0,12.5-10,19.2-22.6,25.9
			c-8.8,5-13.7,8.7-16.2,13.3H742.8z"/>
		<path class="st1" d="M750.1,924.3c0-22.2,11.8-35.3,30.9-35.3c19.2,0,30.9,13.1,30.9,35.3c0,22.1-11.8,35.2-30.9,35.2
			C761.8,959.5,750.1,946.4,750.1,924.3z M800,924.3c0-15.6-7.2-24.8-19-24.8c-11.7,0-19,9.2-19,24.8c0,15.5,7.3,24.7,19,24.7
			C792.7,949,800,939.8,800,924.3z"/>
		<path class="st1" d="M830.2,901.3l-13.3,2.9l-2.4-9.1l21.7-5.1h5.9v68.2h-11.9V901.3z"/>
		<path class="st1" d="M910.3,922.5c0,26.6-12.7,37-29.7,37c-16.1,0-24.4-8.6-24.3-17.8v-1.2h11.2c0.2,5,4,9.2,13,9.2
			c11.9,0,17.4-8.8,18.1-22.1c-3.9,4-10.5,6.6-17.7,6.6c-13.8,0-25.9-6.7-25.9-21.8c0-14.9,11.2-23.4,26.2-23.4
			C900,889.1,910.3,900.2,910.3,922.5z M897.6,913c0-6.7-5.8-14.1-16.3-14.1c-9.6,0-14.6,5.9-14.6,13.6c0,8.4,7,12.8,15.7,12.8
			C890.7,925.3,897.6,920.8,897.6,913z"/>
	</g>
	<g>
		<path class="st1" d="M694.3,475.7l38-41.3h-84.2c-89.3-60.8-206.7-60.8-296,0h-84.4l38,41.3c-47.2,43.3-50.4,116.8-7.1,164
			c43.3,47.2,116.8,50.4,164,7.1c0.1-0.1,0.1-0.1,0.2-0.2l37.2,40.5l37.2-40.5c21.4,19.9,49.6,31,78.9,30.9
			c64.1,0,116.1-52,116.1-116.1C732.2,528.8,718.5,497.6,694.3,475.7z M383.9,640c-43.4,0-78.6-35.2-78.6-78.6
			c0-43.4,35.2-78.6,78.6-78.6c43.4,0,78.6,35.2,78.6,78.6C462.5,604.8,427.3,640,383.9,640L383.9,640z M500,559.2
			c0-51.7-37.6-96.1-87.2-115c55.8-23.2,118.6-23.2,174.4,0C537.6,463.1,500,507.5,500,559.2L500,559.2z M616.1,640
			c-43.4,0-78.6-35.2-78.6-78.6c0-43.4,35.2-78.6,78.6-78.6c43.4,0,78.6,35.2,78.6,78.6l0,0C694.6,604.8,659.4,640,616.1,640z
			 M616.1,520.3c-22.7,0-41.2,18.4-41.2,41.2c0,22.7,18.4,41.2,41.2,41.2c22.7,0,41.2-18.4,41.2-41.2c0,0,0,0,0,0
			C657.2,538.7,638.8,520.3,616.1,520.3C616.1,520.3,616.1,520.3,616.1,520.3z M425.1,561.4c0,22.7-18.4,41.2-41.2,41.2
			c-22.7,0-41.2-18.4-41.2-41.2c0-22.7,18.4-41.2,41.2-41.2c0,0,0,0,0,0C406.6,520.3,425.1,538.7,425.1,561.4L425.1,561.4z"/>
	</g>
</svg>
