<!-- Generator: Adobe Illustrator 23.0.0, SVG Export Plug-In  -->
<svg version="1.1" xmlns="http://www.w3.org/2000/svg" xmlns:xlink="http://www.w3.org/1999/xlink" x="0px" y="0px" width="230.2px"
	 height="233px" viewBox="0 0 230.2 233" style="enable-background:new 0 0 230.2 233;" xml:space="preserve">
<style type="text/css">
	.st0{fill:#00AF87;}
	.st1{opacity:0.5;fill:#00AF87;}
	.st2{fill:none;}
	.st3{fill:#091015;}
	.st4{fill:#FAC414;}
	.st5{fill:#FFFFFF;}
	.st6{fill:#EE6946;}
	.st7{fill:#0E1317;}
</style>
<defs>
</defs>
<path class="st0" d="M2.3,115.1C2.3,52.9,52.9,2.3,115.1,2.3c62.2,0,112.8,50.6,112.8,112.8c0,28.3-10.5,54.2-27.8,74.1h3.1
	c16.9-20,27.1-45.9,27.1-74.1C230.2,51.6,178.6,0,115.1,0C51.6,0,0,51.6,0,115.1c0,28.2,10.2,54,27.1,74.1h3.1
	C12.8,169.4,2.3,143.4,2.3,115.1z"/>
<path class="st0" d="M4.9,115.1C4.9,54.3,54.3,4.9,115.1,4.9c60.8,0,110.2,49.4,110.2,110.2c0,28.5-10.9,54.5-28.7,74.1h1.6
	c17.6-19.7,28.3-45.7,28.3-74.1c0-61.4-50-111.4-111.4-111.4C53.7,3.7,3.7,53.7,3.7,115.1c0,28.4,10.7,54.4,28.3,74.1h1.6
	C15.8,169.6,4.9,143.6,4.9,115.1z"/>
<g>
	<g>
		<path class="st0" d="M141.3,199.7c0,1.3,1.1,2.4,2.4,2.4c1.3,0,2.4-1.1,2.4-2.4c0-1.3-1.1-2.4-2.4-2.4
			C142.4,197.3,141.3,198.4,141.3,199.7"/>
		<path class="st0" d="M93.1,216.8c0,3.4-2,5.6-5.2,5.6c-1.9,0-3.3-1.3-3.3-3.1c0-2.4,2.3-3.7,6.4-3.7h2V216.8z M89.6,205
			c-2.4,0-4.6,0.5-6.5,1.4l-0.1,0.1l0,3.4l0.3-0.2c1.9-1,3.6-1.6,5.2-1.6c2.9,0,4.5,1.6,4.5,4.5v0.2h-2.3c-6.5,0-10.1,2.4-10.1,6.7
			c0,3.4,2.6,5.9,6.3,5.9c2.7,0,4.9-1.1,6.4-3.1v2.8H97v-11.9C97,207.7,94.5,205,89.6,205"/>
		<path class="st0" d="M108.7,222c-3,0-4.9-2.6-4.9-6.9c0-4.3,1.9-7,4.8-7c3.3,0,5.2,2.6,5.2,7C113.8,219.3,111.8,222,108.7,222
			 M113.8,196.1v12c-1.5-2-3.5-3.1-6.1-3.1c-4.9,0-8.1,4-8.1,9.9c0,6.1,3.3,10.4,8,10.4c2.8,0,5-1.2,6.5-3.7v3.4h3.7v-28.9H113.8z"
			/>
		<polygon class="st0" points="135.6,205.4 129.9,216.7 124.7,205.4 120.2,205.4 129.8,225 139.7,205.4 		"/>
		<polygon class="st0" points="145.5,205.4 141.7,205.4 141.7,225 145.7,225 145.7,205.4 		"/>
		<path class="st0" d="M150.4,210.5c0,2.8,1.9,4.2,5.4,5.9c2.2,1.1,3.4,1.7,3.4,3.2c0,1.6-1.4,2.6-3.6,2.6c-1.6,0-3.3-0.4-5-1.3
			l-0.3-0.1l-0.1,3.4l0.1,0.1c1.6,0.6,3.4,1,5.1,1c4.9,0,8-2.3,8-5.9c0-3-2-4.5-5.4-6.1c-2.5-1.2-3.6-1.9-3.6-3.1c0-1.2,1.2-2,3-2
			c1.6,0,3.2,0.4,4.8,1.1l0.3,0.1l0.2-3.4l-0.2-0.1c-1.6-0.5-3.3-0.7-4.8-0.7C153.2,205.2,150.4,207.3,150.4,210.5"/>
		<path class="st0" d="M175.8,222.2c-3.3,0-5.5-2.8-5.5-7c0-4.2,2.2-7.1,5.5-7.1c3.4,0,5.5,2.8,5.5,7.1
			C181.3,219.5,179.1,222.2,175.8,222.2 M175.7,205c-6,0-9.7,3.9-9.7,10.3c0,6.3,3.7,10.3,9.7,10.3c6,0,9.7-3.9,9.7-10.3
			C185.5,208.9,181.7,205,175.7,205"/>
		<path class="st0" d="M192.8,208.6v-3.2h-3.6V225h4v-9.8c0-4.1,1.7-6.4,4.9-6.4c0.5,0,0.9,0.1,1.4,0.2l0.3,0.1l0.1-3.9l-1.7-0.1
			C195.8,205.1,193.9,206.3,192.8,208.6"/>
		<path class="st1" d="M206.3,206.7h0.4c0.5,0,0.7-0.2,0.7-0.5c0-0.4-0.2-0.5-0.8-0.5h-0.3V206.7z M206.8,205c1.1,0,1.7,0.4,1.7,1.1
			c0,0.5-0.3,0.9-0.8,1.1l0.9,1.7h-1.2l-0.7-1.5h-0.3v1.5h-1.1V205H206.8z M204.7,205c-0.6,0.6-0.9,1.3-0.9,2.1c0,0.8,0.3,1.5,0.8,2
			c0.6,0.6,1.3,0.9,2.1,0.9c0.8,0,1.5-0.3,2.1-0.8c0.6-0.5,0.9-1.3,0.9-2.1c0-0.8-0.3-1.5-0.8-2c-0.6-0.6-1.3-0.9-2.1-0.9
			C205.9,204.1,205.2,204.4,204.7,205 M209.3,204.6c0.7,0.7,1,1.5,1,2.5c0,1-0.4,1.9-1.1,2.5c-0.7,0.7-1.6,1-2.5,1
			c-1,0-1.8-0.4-2.5-1.1c-0.7-0.7-1-1.5-1-2.5c0-0.9,0.4-1.9,1.1-2.6c0.7-0.7,1.5-1,2.5-1C207.7,203.5,208.6,203.9,209.3,204.6"/>
	</g>
	<g>
		<path class="st2" d="M85.6,127.3c-13.1,0-23.8,10.7-23.8,23.8c0,13.1,10.6,23.7,23.8,23.7c13.1,0,23.7-10.6,23.7-23.7
			C109.4,138,98.7,127.3,85.6,127.3z"/>
		<path class="st2" d="M134.6,123.3c3.1-1.1,6.2-1.7,9.4-1.8c-8.5-3.8-18.2-5.7-28.8-5.7c-10.6,0-20.4,2-28.9,5.6
			c15.4,0.3,27.9,12.4,29,27.6c0.3-3.5,1.1-6.9,2.6-10.2C121.2,131.5,127.2,126,134.6,123.3z"/>
		<path class="st2" d="M136.7,128.9c-6,2.2-10.7,6.6-13.3,12.3c-2.6,5.8-2.9,12.2-0.7,18.2v0c2.2,5.9,6.6,10.7,12.3,13.3
			c5.8,2.7,12.2,2.9,18.2,0.7c12.3-4.5,18.6-18.2,14.1-30.5C162.7,130.7,149,124.4,136.7,128.9z"/>
		<path class="st3" d="M172.8,140.9c-1-2.7-2.4-5.2-4-7.4c1.4-6,5.9-11.9,5.9-11.9l-19.9,0c-11.1-7.2-24.7-11-39.7-11
			c-15.5,0-29.6,3.9-40.7,11.2l-18.6,0c0,0,4.4,5.9,5.8,11.8c-3.6,4.9-5.8,11-5.8,17.6c0,16.4,13.4,29.7,29.8,29.7
			c9.4,0,17.7-4.4,23.2-11.2l6.3,9.5l6.4-9.6c2.9,3.7,6.6,6.6,10.9,8.6c7.2,3.3,15.3,3.7,22.8,0.9
			C170.6,173.4,178.5,156.3,172.8,140.9z M85.6,174.8c-13.1,0-23.8-10.6-23.8-23.7c0-13.1,10.6-23.8,23.8-23.8
			c13.1,0,23.7,10.7,23.7,23.8C109.4,164.2,98.7,174.8,85.6,174.8z M115.3,148.9c-1.1-15.2-13.6-27.3-29-27.6
			c8.5-3.6,18.3-5.6,28.9-5.6c10.7,0,20.3,1.9,28.8,5.7c-3.1,0.1-6.3,0.7-9.4,1.8c-7.5,2.7-13.4,8.2-16.7,15.5
			C116.4,142,115.5,145.4,115.3,148.9z M153.2,173.5c-6,2.2-12.4,1.9-18.2-0.7c-5.8-2.7-10.1-7.4-12.3-13.3v0
			c-2.2-5.9-1.9-12.4,0.7-18.2c2.7-5.8,7.4-10.1,13.3-12.3c12.3-4.5,26,1.8,30.5,14.1C171.7,155.2,165.4,168.9,153.2,173.5z"/>
	</g>
	<path class="st3" d="M29.2,199.5l-3.6,1.2v4.7h-4v3.1h3.9v10.1c0,4.8,1.6,6.7,5.6,6.7c1,0,2-0.1,3-0.4l0.2,0l0-3.2l-0.3,0.1
		c-0.8,0.3-1.4,0.4-1.9,0.4c-1.9,0-2.6-1.1-2.6-3.9v-9.7H34v-3.1h-4.6v-6L29.2,199.5z"/>
	<path class="st3" d="M41.5,208.6v-3.2h-3.6V225h4v-9.8c0-4.1,1.7-6.4,4.9-6.4c0.5,0,0.9,0.1,1.4,0.2l0.3,0.1l0.1-3.9l-1.7-0.1
		C44.6,205.1,42.7,206.3,41.5,208.6"/>
	<path class="st3" d="M68.8,222.1c-3.1,0-5.1-2.7-5.1-7c0-4.2,2.1-6.8,5.2-6.8c3.1,0,4.9,2.5,4.9,6.8
		C73.8,219.4,71.9,222.1,68.8,222.1 M69.9,205c-2.7,0-5,1.3-6.5,3.6v-3.2h-3.6V233h4v-10.7c1.4,1.9,3.5,3,6.1,3
		c5,0,8.3-4.1,8.3-10.5C78,208.9,74.7,205,69.9,205"/>
	<polygon class="st3" points="55.7,205.4 51.9,205.4 51.9,225 55.9,225 55.9,205.4 	"/>
	<path class="st3" d="M51.5,199.7c0,1.3,1.1,2.4,2.4,2.4c1.3,0,2.4-1.1,2.4-2.4c0-1.3-1.1-2.4-2.4-2.4
		C52.6,197.3,51.5,198.4,51.5,199.7"/>
	<path class="st4" d="M134.6,123.3c3.1-1.1,6.2-1.7,9.4-1.8c-8.5-3.8-18.2-5.7-28.8-5.7c-10.6,0-20.4,2-28.9,5.6
		c15.4,0.3,27.9,12.4,29,27.6c0.3-3.5,1.1-6.9,2.6-10.2C121.2,131.5,127.2,126,134.6,123.3z"/>
	<path class="st5" d="M136.7,128.9c-6,2.2-10.7,6.6-13.3,12.3c-2.6,5.8-2.9,12.2-0.7,18.2v0c2.2,5.9,6.6,10.7,12.3,13.3
		c5.8,2.7,12.2,2.9,18.2,0.7c12.3-4.5,18.6-18.2,14.1-30.5C162.7,130.7,149,124.4,136.7,128.9z M144.9,165.5
		c-8.1,0-14.7-6.6-14.7-14.7c0-8.1,6.6-14.7,14.7-14.7c8.1,0,14.7,6.6,14.7,14.7C159.6,158.9,153,165.5,144.9,165.5z"/>
	<path class="st5" d="M144.9,141.2c-5.3,0-9.6,4.3-9.6,9.6c0,5.3,4.3,9.6,9.6,9.6c5.3,0,9.6-4.3,9.6-9.6
		C154.5,145.5,150.2,141.2,144.9,141.2z M144.9,155.8c-2.7,0-4.9-2.2-4.9-4.9c0-2.7,2.2-4.9,4.9-4.9c2.7,0,4.9,2.2,4.9,4.9
		C149.8,153.5,147.6,155.8,144.9,155.8z"/>
	<path class="st5" d="M85.3,141.2c-5.3,0-9.6,4.3-9.6,9.6c0,5.3,4.3,9.6,9.6,9.6c5.3,0,9.6-4.3,9.6-9.6
		C94.9,145.5,90.6,141.2,85.3,141.2z M85.3,155.8c-2.7,0-5-2.2-5-4.9c0-2.7,2.2-4.9,5-4.9c2.7,0,4.9,2.2,4.9,4.9
		C90.2,153.5,88,155.8,85.3,155.8z"/>
	<path class="st5" d="M85.6,127.3c-13.1,0-23.8,10.7-23.8,23.8c0,13.1,10.6,23.7,23.8,23.7c13.1,0,23.7-10.6,23.7-23.7
		C109.4,138,98.7,127.3,85.6,127.3z M85.3,165.5c-8.1,0-14.7-6.6-14.7-14.7c0-8.1,6.6-14.7,14.7-14.7c8.1,0,14.7,6.6,14.7,14.7
		C99.9,158.9,93.4,165.5,85.3,165.5z"/>
	<path class="st6" d="M85.3,145.9c-2.7,0-5,2.2-5,4.9c0,2.7,2.2,4.9,5,4.9c2.7,0,4.9-2.2,4.9-4.9C90.2,148.1,88,145.9,85.3,145.9z"
		/>
	<path class="st0" d="M144.9,145.9c-2.7,0-4.9,2.2-4.9,4.9c0,2.7,2.2,4.9,4.9,4.9c2.7,0,4.9-2.2,4.9-4.9
		C149.8,148.1,147.6,145.9,144.9,145.9z"/>
	<path class="st2" d="M134.6,123.3c3.1-1.1,6.2-1.7,9.4-1.8c-8.5-3.8-18.2-5.7-28.8-5.7c-10.6,0-20.4,2-28.9,5.6
		c15.4,0.3,27.9,12.4,29,27.6c0.3-3.5,1.1-6.9,2.6-10.2C121.2,131.5,127.2,126,134.6,123.3z"/>
	<path class="st2" d="M85.6,127.3c-13.1,0-23.8,10.7-23.8,23.8c0,13.1,10.6,23.7,23.8,23.7c13.1,0,23.7-10.6,23.7-23.7
		C109.4,138,98.7,127.3,85.6,127.3z"/>
	<path class="st2" d="M136.7,128.9c-6,2.2-10.7,6.6-13.3,12.3c-2.6,5.8-2.9,12.2-0.7,18.2v0c2.2,5.9,6.6,10.7,12.3,13.3
		c5.8,2.7,12.2,2.9,18.2,0.7c12.3-4.5,18.6-18.2,14.1-30.5C162.7,130.7,149,124.4,136.7,128.9z"/>
	<path class="st3" d="M85.3,136.1c-8.1,0-14.7,6.6-14.7,14.7c0,8.1,6.6,14.7,14.7,14.7c8.1,0,14.7-6.6,14.7-14.7
		C99.9,142.7,93.4,136.1,85.3,136.1z M85.3,160.5c-5.3,0-9.6-4.3-9.6-9.6c0-5.3,4.3-9.6,9.6-9.6c5.3,0,9.6,4.3,9.6,9.6
		C94.9,156.1,90.6,160.5,85.3,160.5z"/>
	<path class="st3" d="M144.9,136.1c-8.1,0-14.7,6.6-14.7,14.7c0,8.1,6.6,14.7,14.7,14.7c8.1,0,14.7-6.6,14.7-14.7
		C159.6,142.7,153,136.1,144.9,136.1z M144.9,160.5c-5.3,0-9.6-4.3-9.6-9.6c0-5.3,4.3-9.6,9.6-9.6c5.3,0,9.6,4.3,9.6,9.6
		C154.5,156.1,150.2,160.5,144.9,160.5z"/>
	<path class="st3" d="M182.8,123.6h0.4c0.5,0,0.7-0.2,0.7-0.5c0-0.4-0.2-0.5-0.7-0.5h-0.3V123.6z M183.3,122c1.1,0,1.6,0.4,1.6,1.1
		c0,0.5-0.3,0.9-0.8,1l0.8,1.7h-1.1l-0.7-1.5h-0.3v1.5h-1V122H183.3z M181.3,121.9c-0.6,0.6-0.8,1.3-0.8,2c0,0.7,0.3,1.4,0.8,2
		c0.5,0.6,1.3,0.9,2,0.9c0.7,0,1.5-0.3,2-0.8c0.5-0.5,0.8-1.2,0.8-2c0-0.8-0.3-1.5-0.8-2c-0.5-0.6-1.2-0.9-2-0.9
		S181.8,121.4,181.3,121.9 M185.8,121.5c0.6,0.6,1,1.5,1,2.4c0,1-0.4,1.8-1,2.5c-0.7,0.6-1.5,1-2.4,1c-0.9,0-1.8-0.4-2.5-1.1
		c-0.6-0.7-1-1.5-1-2.4c0-0.9,0.4-1.8,1-2.5c0.7-0.6,1.5-1,2.4-1C184.2,120.5,185.1,120.8,185.8,121.5"/>
	<g>
		<path class="st2" d="M85.6,127.3c-13.1,0-23.8,10.7-23.8,23.8c0,13.1,10.6,23.7,23.8,23.7c13.1,0,23.7-10.6,23.7-23.7
			C109.4,138,98.7,127.3,85.6,127.3z"/>
		<path class="st2" d="M134.6,123.3c3.1-1.1,6.2-1.7,9.4-1.8c-8.5-3.8-18.2-5.7-28.8-5.7c-10.6,0-20.4,2-28.9,5.6
			c15.4,0.3,27.9,12.4,29,27.6c0.3-3.5,1.1-6.9,2.6-10.2C121.2,131.5,127.2,126,134.6,123.3z"/>
		<path class="st2" d="M136.7,128.9c-6,2.2-10.7,6.6-13.3,12.3c-2.6,5.8-2.9,12.2-0.7,18.2v0c2.2,5.9,6.6,10.7,12.3,13.3
			c5.8,2.7,12.2,2.9,18.2,0.7c12.3-4.5,18.6-18.2,14.1-30.5C162.7,130.7,149,124.4,136.7,128.9z"/>
		<path class="st3" d="M172.8,140.9c-1-2.7-2.4-5.2-4-7.4c1.4-6,5.9-11.9,5.9-11.9l-19.9,0c-11.1-7.2-24.7-11-39.7-11
			c-15.5,0-29.6,3.9-40.7,11.2l-18.6,0c0,0,4.4,5.9,5.8,11.8c-3.6,4.9-5.8,11-5.8,17.6c0,16.4,13.4,29.7,29.8,29.7
			c9.4,0,17.7-4.4,23.2-11.2l6.3,9.5l6.4-9.6c2.9,3.7,6.6,6.6,10.9,8.6c7.2,3.3,15.3,3.7,22.8,0.9
			C170.6,173.4,178.5,156.3,172.8,140.9z M85.6,174.8c-13.1,0-23.8-10.6-23.8-23.7c0-13.1,10.6-23.8,23.8-23.8
			c13.1,0,23.7,10.7,23.7,23.8C109.4,164.2,98.7,174.8,85.6,174.8z M115.3,148.9c-1.1-15.2-13.6-27.3-29-27.6
			c8.5-3.6,18.3-5.6,28.9-5.6c10.7,0,20.3,1.9,28.8,5.7c-3.1,0.1-6.3,0.7-9.4,1.8c-7.5,2.7-13.4,8.2-16.7,15.5
			C116.4,142,115.5,145.4,115.3,148.9z M153.2,173.5c-6,2.2-12.4,1.9-18.2-0.7c-5.8-2.7-10.1-7.4-12.3-13.3v0
			c-2.2-5.9-1.9-12.4,0.7-18.2c2.7-5.8,7.4-10.1,13.3-12.3c12.3-4.5,26,1.8,30.5,14.1C171.7,155.2,165.4,168.9,153.2,173.5z"/>
	</g>
	<path class="st3" d="M29.2,199.5l-3.6,1.2v4.7h-4v3.1h3.9v10.1c0,4.8,1.6,6.7,5.6,6.7c1,0,2-0.1,3-0.4l0.2,0l0-3.2l-0.3,0.1
		c-0.8,0.3-1.4,0.4-1.9,0.4c-1.9,0-2.6-1.1-2.6-3.9v-9.7H34v-3.1h-4.6v-6L29.2,199.5z"/>
	<path class="st3" d="M41.5,208.6v-3.2h-3.6V225h4v-9.8c0-4.1,1.7-6.4,4.9-6.4c0.5,0,0.9,0.1,1.4,0.2l0.3,0.1l0.1-3.9l-1.7-0.1
		C44.6,205.1,42.7,206.3,41.5,208.6"/>
	<path class="st3" d="M68.8,222.1c-3.1,0-5.1-2.7-5.1-7c0-4.2,2.1-6.8,5.2-6.8c3.1,0,4.9,2.5,4.9,6.8
		C73.8,219.4,71.9,222.1,68.8,222.1 M69.9,205c-2.7,0-5,1.3-6.5,3.6v-3.2h-3.6V233h4v-10.7c1.4,1.9,3.5,3,6.1,3
		c5,0,8.3-4.1,8.3-10.5C78,208.9,74.7,205,69.9,205"/>
	<polygon class="st3" points="55.7,205.4 51.9,205.4 51.9,225 55.9,225 55.9,205.4 	"/>
	<path class="st3" d="M51.5,199.7c0,1.3,1.1,2.4,2.4,2.4c1.3,0,2.4-1.1,2.4-2.4c0-1.3-1.1-2.4-2.4-2.4
		C52.6,197.3,51.5,198.4,51.5,199.7"/>
	<path class="st4" d="M134.6,123.3c3.1-1.1,6.2-1.7,9.4-1.8c-8.5-3.8-18.2-5.7-28.8-5.7c-10.6,0-20.4,2-28.9,5.6
		c15.4,0.3,27.9,12.4,29,27.6c0.3-3.5,1.1-6.9,2.6-10.2C121.2,131.5,127.2,126,134.6,123.3z"/>
	<path class="st5" d="M136.7,128.9c-6,2.2-10.7,6.6-13.3,12.3c-2.6,5.8-2.9,12.2-0.7,18.2v0c2.2,5.9,6.6,10.7,12.3,13.3
		c5.8,2.7,12.2,2.9,18.2,0.7c12.3-4.5,18.6-18.2,14.1-30.5C162.7,130.7,149,124.4,136.7,128.9z M144.9,165.5
		c-8.1,0-14.7-6.6-14.7-14.7c0-8.1,6.6-14.7,14.7-14.7c8.1,0,14.7,6.6,14.7,14.7C159.6,158.9,153,165.5,144.9,165.5z"/>
	<path class="st5" d="M144.9,141.2c-5.3,0-9.6,4.3-9.6,9.6c0,5.3,4.3,9.6,9.6,9.6c5.3,0,9.6-4.3,9.6-9.6
		C154.5,145.5,150.2,141.2,144.9,141.2z M144.9,155.8c-2.7,0-4.9-2.2-4.9-4.9c0-2.7,2.2-4.9,4.9-4.9c2.7,0,4.9,2.2,4.9,4.9
		C149.8,153.5,147.6,155.8,144.9,155.8z"/>
	<path class="st5" d="M85.3,141.2c-5.3,0-9.6,4.3-9.6,9.6c0,5.3,4.3,9.6,9.6,9.6c5.3,0,9.6-4.3,9.6-9.6
		C94.9,145.5,90.6,141.2,85.3,141.2z M85.3,155.8c-2.7,0-5-2.2-5-4.9c0-2.7,2.2-4.9,5-4.9c2.7,0,4.9,2.2,4.9,4.9
		C90.2,153.5,88,155.8,85.3,155.8z"/>
	<path class="st5" d="M85.6,127.3c-13.1,0-23.8,10.7-23.8,23.8c0,13.1,10.6,23.7,23.8,23.7c13.1,0,23.7-10.6,23.7-23.7
		C109.4,138,98.7,127.3,85.6,127.3z M85.3,165.5c-8.1,0-14.7-6.6-14.7-14.7c0-8.1,6.6-14.7,14.7-14.7c8.1,0,14.7,6.6,14.7,14.7
		C99.9,158.9,93.4,165.5,85.3,165.5z"/>
	<path class="st6" d="M85.3,145.9c-2.7,0-5,2.2-5,4.9c0,2.7,2.2,4.9,5,4.9c2.7,0,4.9-2.2,4.9-4.9C90.2,148.1,88,145.9,85.3,145.9z"
		/>
	<path class="st0" d="M144.9,145.9c-2.7,0-4.9,2.2-4.9,4.9c0,2.7,2.2,4.9,4.9,4.9c2.7,0,4.9-2.2,4.9-4.9
		C149.8,148.1,147.6,145.9,144.9,145.9z"/>
	<path class="st2" d="M134.6,123.3c3.1-1.1,6.2-1.7,9.4-1.8c-8.5-3.8-18.2-5.7-28.8-5.7c-10.6,0-20.4,2-28.9,5.6
		c15.4,0.3,27.9,12.4,29,27.6c0.3-3.5,1.1-6.9,2.6-10.2C121.2,131.5,127.2,126,134.6,123.3z"/>
	<path class="st2" d="M85.6,127.3c-13.1,0-23.8,10.7-23.8,23.8c0,13.1,10.6,23.7,23.8,23.7c13.1,0,23.7-10.6,23.7-23.7
		C109.4,138,98.7,127.3,85.6,127.3z"/>
	<path class="st2" d="M136.7,128.9c-6,2.2-10.7,6.6-13.3,12.3c-2.6,5.8-2.9,12.2-0.7,18.2v0c2.2,5.9,6.6,10.7,12.3,13.3
		c5.8,2.7,12.2,2.9,18.2,0.7c12.3-4.5,18.6-18.2,14.1-30.5C162.7,130.7,149,124.4,136.7,128.9z"/>
	<path class="st3" d="M85.3,136.1c-8.1,0-14.7,6.6-14.7,14.7c0,8.1,6.6,14.7,14.7,14.7c8.1,0,14.7-6.6,14.7-14.7
		C99.9,142.7,93.4,136.1,85.3,136.1z M85.3,160.5c-5.3,0-9.6-4.3-9.6-9.6c0-5.3,4.3-9.6,9.6-9.6c5.3,0,9.6,4.3,9.6,9.6
		C94.9,156.1,90.6,160.5,85.3,160.5z"/>
	<path class="st3" d="M144.9,136.1c-8.1,0-14.7,6.6-14.7,14.7c0,8.1,6.6,14.7,14.7,14.7c8.1,0,14.7-6.6,14.7-14.7
		C159.6,142.7,153,136.1,144.9,136.1z M144.9,160.5c-5.3,0-9.6-4.3-9.6-9.6c0-5.3,4.3-9.6,9.6-9.6c5.3,0,9.6,4.3,9.6,9.6
		C154.5,156.1,150.2,160.5,144.9,160.5z"/>
	<path class="st3" d="M182.8,123.6h0.4c0.5,0,0.7-0.2,0.7-0.5c0-0.4-0.2-0.5-0.7-0.5h-0.3V123.6z M183.3,122c1.1,0,1.6,0.4,1.6,1.1
		c0,0.5-0.3,0.9-0.8,1l0.8,1.7h-1.1l-0.7-1.5h-0.3v1.5h-1V122H183.3z M181.3,121.9c-0.6,0.6-0.8,1.3-0.8,2c0,0.7,0.3,1.4,0.8,2
		c0.5,0.6,1.3,0.9,2,0.9c0.7,0,1.5-0.3,2-0.8c0.5-0.5,0.8-1.2,0.8-2c0-0.8-0.3-1.5-0.8-2c-0.5-0.6-1.2-0.9-2-0.9
		S181.8,121.4,181.3,121.9 M185.8,121.5c0.6,0.6,1,1.5,1,2.4c0,1-0.4,1.8-1,2.5c-0.7,0.6-1.5,1-2.4,1c-0.9,0-1.8-0.4-2.5-1.1
		c-0.6-0.7-1-1.5-1-2.4c0-0.9,0.4-1.8,1-2.5c0.7-0.6,1.5-1,2.4-1C184.2,120.5,185.1,120.8,185.8,121.5"/>
</g>
<g>
	<path class="st3" d="M52.6,68.5c-1.4,0-2.6-0.3-3.7-0.8c-1.1-0.5-1.9-1.3-2.5-2.4c-0.6-1-0.9-2.2-0.9-3.6c0-1.3,0.3-2.5,0.9-3.5
		c0.6-1,1.4-1.9,2.5-2.5c1.1-0.6,2.4-0.9,3.8-0.9c0.7,0,1.5,0.1,2.2,0.3c0.8,0.2,1.4,0.5,1.9,0.8l-0.4,2.3c-1.3-0.6-2.5-0.9-3.7-0.9
		c-0.9,0-1.6,0.2-2.3,0.5c-0.7,0.4-1.2,0.9-1.6,1.6c-0.4,0.7-0.6,1.5-0.6,2.4c0,1.4,0.4,2.5,1.2,3.3c0.8,0.8,1.9,1.2,3.3,1.2
		c0.6,0,1.3-0.1,2-0.3c0.7-0.2,1.3-0.4,2-0.7l0.3,2.3c-0.6,0.3-1.3,0.6-2.1,0.8C54.2,68.4,53.4,68.5,52.6,68.5z"/>
	<path class="st3" d="M59.3,54.9h8.8v2.3h-6.2v3.2h5.5v2.2h-5.5V66h6.5v2.3h-9.1V54.9z"/>
	<path class="st3" d="M70.7,54.9h4.3c1.5,0,2.7,0.4,3.6,1.1c0.9,0.8,1.3,1.8,1.3,3.1c0,0.8-0.2,1.5-0.6,2.1
		c-0.4,0.6-0.9,1.1-1.7,1.5l3.6,5.5h-3l-2.9-4.8c-0.2,0-0.4,0-0.5,0c-0.1,0-0.3,0-0.4,0h-1.3v4.8h-2.6V54.9z M73.3,61.4h1.3
		c1.8,0,2.8-0.7,2.8-2.2c0-0.7-0.2-1.2-0.7-1.6c-0.5-0.4-1.1-0.5-2-0.5h-1.4V61.4z"/>
	<path class="st3" d="M85.5,57.1h-4.3v-2.2h11.3v2.2h-4.3v11.1h-2.7V57.1z"/>
	<path class="st3" d="M94.3,54.9H97v13.4h-2.7V54.9z"/>
	<path class="st3" d="M99.8,54.9h8.6v2.3h-5.9v3.6h5.1V63h-5.1v5.3h-2.7V54.9z"/>
	<path class="st3" d="M110.5,54.9h2.7v13.4h-2.7V54.9z"/>
	<path class="st3" d="M122.4,68.5c-1.4,0-2.6-0.3-3.7-0.8c-1.1-0.5-1.9-1.3-2.5-2.4c-0.6-1-0.9-2.2-0.9-3.6c0-1.3,0.3-2.5,0.9-3.5
		c0.6-1,1.4-1.9,2.5-2.5c1.1-0.6,2.4-0.9,3.8-0.9c0.7,0,1.5,0.1,2.2,0.3c0.8,0.2,1.4,0.5,1.9,0.8l-0.4,2.3c-1.3-0.6-2.5-0.9-3.7-0.9
		c-0.9,0-1.6,0.2-2.3,0.5c-0.7,0.4-1.2,0.9-1.6,1.6c-0.4,0.7-0.6,1.5-0.6,2.4c0,1.4,0.4,2.5,1.2,3.3c0.8,0.8,1.9,1.2,3.3,1.2
		c0.6,0,1.3-0.1,2-0.3c0.7-0.2,1.3-0.4,2-0.7l0.3,2.3c-0.6,0.3-1.3,0.6-2.1,0.8C124,68.4,123.2,68.5,122.4,68.5z"/>
	<path class="st3" d="M133.3,54.9h2.8l5.3,13.4h-2.8l-1.3-3.5h-5.4l-1.3,3.5H128L133.3,54.9z M136.6,62.7l-2-5.4l-2,5.4H136.6z"/>
	<path class="st3" d="M144.8,57.1h-4.3v-2.2h11.3v2.2h-4.3v11.1h-2.7V57.1z"/>
	<path class="st3" d="M153.6,54.9h8.8v2.3h-6.2v3.2h5.5v2.2h-5.5V66h6.5v2.3h-9.1V54.9z"/>
	<path class="st3" d="M172,68.6c-0.8,0-1.5-0.2-2.1-0.5c-0.6-0.3-1.1-0.8-1.5-1.4c-0.4-0.6-0.5-1.3-0.5-2.1c0-0.9,0.2-1.8,0.7-2.6
		c0.4-0.8,1-1.5,1.8-2c0.8-0.5,1.7-0.8,2.6-0.8c0.8,0,1.5,0.2,2.1,0.5c0.6,0.3,1.1,0.8,1.5,1.4c0.4,0.6,0.5,1.3,0.5,2.1
		c0,0.9-0.2,1.8-0.7,2.6c-0.4,0.8-1.1,1.5-1.8,2C173.8,68.3,172.9,68.6,172,68.6z M172.1,66.8c0.5,0,1-0.1,1.5-0.4
		c0.5-0.3,0.8-0.7,1.1-1.2c0.3-0.5,0.4-1.1,0.4-1.7c0-0.7-0.2-1.3-0.6-1.8c-0.4-0.4-0.9-0.6-1.6-0.6c-0.5,0-1,0.1-1.5,0.4
		c-0.5,0.3-0.8,0.7-1.1,1.2c-0.3,0.5-0.4,1.1-0.4,1.7c0,0.8,0.2,1.3,0.6,1.8C170.9,66.5,171.4,66.8,172.1,66.8z"/>
	<path class="st3" d="M180.2,61.1h-1.6l0.3-1.7h1.6l0.3-1.5c0.3-1.3,0.7-2.3,1.5-3c0.7-0.7,1.6-1,2.8-1c0.4,0,0.7,0,1.1,0.1
		c0.4,0.1,0.6,0.2,0.9,0.4l-0.4,1.7c-0.4-0.2-0.9-0.4-1.4-0.4c-0.6,0-1.2,0.2-1.5,0.6c-0.4,0.4-0.7,1-0.8,1.9l-0.2,1.2h2.5l-0.3,1.7
		h-2.5l-1.4,7.2h-2L180.2,61.1z"/>
	<path class="st3" d="M32.2,74.2h12.4v3.2h-8.7v4.5h7.7v3.1h-7.7v4.8h9.1v3.2H32.2V74.2z"/>
	<path class="st3" d="M53.5,83.2l-6.2-9h4.4l4.2,6.4l4.1-6.4h4.3l-6.3,9l6.7,9.7h-4.5l-4.6-7.1L51,92.9h-4.3L53.5,83.2z"/>
	<path class="st3" d="M75,93.2c-1.9,0-3.7-0.4-5.1-1.1c-1.5-0.8-2.7-1.9-3.5-3.3c-0.9-1.4-1.3-3.1-1.3-5.1c0-1.8,0.4-3.5,1.2-5
		c0.8-1.5,2-2.6,3.6-3.5c1.5-0.9,3.3-1.3,5.3-1.3c1,0,2.1,0.1,3.1,0.4c1.1,0.3,2,0.6,2.7,1.1l-0.6,3.2c-1.8-0.9-3.5-1.3-5.2-1.3
		C74,77.3,73,77.5,72,78c-1,0.5-1.7,1.2-2.2,2.2c-0.5,1-0.8,2.1-0.8,3.3c0,1.9,0.6,3.4,1.7,4.6c1.1,1.1,2.7,1.7,4.7,1.7
		c0.9,0,1.8-0.1,2.7-0.4c1-0.2,1.9-0.6,2.7-1l0.4,3.2c-0.8,0.5-1.8,0.8-2.9,1.1C77.2,93,76.1,93.2,75,93.2z"/>
	<path class="st3" d="M84.3,74.2h12.4v3.2H88v4.5h7.7v3.1H88v4.8H97v3.2H84.3V74.2z"/>
	<path class="st3" d="M100.4,74.2h3.8v15.6h8.5v3.1h-12.2V74.2z"/>
	<path class="st3" d="M115.2,74.2h3.8v15.6h8.5v3.1h-12.2V74.2z"/>
	<path class="st3" d="M130.1,74.2h12.4v3.2h-8.7v4.5h7.7v3.1h-7.7v4.8h9.1v3.2h-12.7V74.2z"/>
	<path class="st3" d="M146.1,74.2h3.3l9.8,13v-13h3.6v18.7h-3.3l-9.8-12.9v12.9h-3.6V74.2z"/>
	<path class="st3" d="M175.7,93.2c-1.9,0-3.7-0.4-5.1-1.1c-1.5-0.8-2.7-1.9-3.5-3.3c-0.9-1.4-1.3-3.1-1.3-5.1c0-1.8,0.4-3.5,1.2-5
		c0.8-1.5,2-2.6,3.6-3.5c1.5-0.9,3.3-1.3,5.3-1.3c1,0,2.1,0.1,3.1,0.4c1.1,0.3,2,0.6,2.7,1.1l-0.6,3.2c-1.8-0.9-3.5-1.3-5.2-1.3
		c-1.2,0-2.3,0.3-3.2,0.8c-1,0.5-1.7,1.2-2.2,2.2c-0.5,1-0.8,2.1-0.8,3.3c0,1.9,0.6,3.4,1.7,4.6c1.1,1.1,2.7,1.7,4.7,1.7
		c0.9,0,1.8-0.1,2.7-0.4c1-0.2,1.9-0.6,2.7-1l0.4,3.2c-0.8,0.5-1.8,0.8-2.9,1.1C177.9,93,176.8,93.2,175.7,93.2z"/>
	<path class="st3" d="M185.1,74.2h12.4v3.2h-8.7v4.5h7.7v3.1h-7.7v4.8h9.1v3.2h-12.7V74.2z"/>
</g>
<g>
	<path class="st7" d="M97.5,41v-1.6c1.2-1.1,2.2-2,2.9-2.9s1.2-1.5,1.5-2s0.4-1,0.4-1.5s-0.1-0.9-0.5-1.2c-0.3-0.3-0.7-0.4-1.2-0.4
		s-1,0.1-1.4,0.3s-0.9,0.5-1.3,1l-0.4-1.8c0.4-0.4,0.9-0.7,1.5-1c0.6-0.2,1.2-0.3,1.9-0.3c1.1,0,1.9,0.3,2.6,0.9
		c0.6,0.6,1,1.3,1,2.3c0,0.7-0.2,1.4-0.5,2.2c-0.4,0.7-0.9,1.6-1.7,2.5c-0.3,0.4-0.9,1-1.7,1.7h4.3v1.9h-7.4V41z"/>
	<path class="st7" d="M110.5,41.2c-1.3,0-2.3-0.5-3-1.5s-1.1-2.5-1.1-4.3s0.4-3.3,1.1-4.3s1.7-1.5,3-1.5s2.3,0.5,3,1.5
		s1.1,2.5,1.1,4.3s-0.4,3.2-1.1,4.3C112.8,40.7,111.8,41.2,110.5,41.2z M110.5,39.3c1.2,0,1.8-1.3,1.8-3.9s-0.6-3.9-1.8-3.9
		c-1.2,0-1.8,1.3-1.8,3.9S109.3,39.3,110.5,39.3z"/>
	<path class="st7" d="M119.5,32l-2.9,1.3l-0.3-1.8l3.6-1.7h1.7V41h-2.1V32z"/>
	<path class="st7" d="M126.5,41l4-9.1h-5.2v-2h7.5v1.8l-4.1,9.4L126.5,41z"/>
</g>
</svg>
