<svg version="1.1" xmlns="http://www.w3.org/2000/svg" xmlns:xlink="http://www.w3.org/1999/xlink" viewBox="0 0 144 68.6">
	<style type="text/css">
		.st0{fill:#F4B913;}
	</style>
	<path class="st0" d="M66,9.1L66,9.1c0-2.6,2-4,4.9-4c1.2,0,2.3,0.2,3,0.5V5.4c0-1.3-0.8-2-2.5-2c-1.3,0-2.3,0.3-3.4,0.7L67.1,1
		c1.4-0.6,2.9-1,5.1-1c2.2,0,3.8,0.5,4.8,1.5c0.9,0.9,1.3,2.2,1.3,4v7.2h-4.4v-1.3c-0.9,0.9-2,1.6-3.7,1.6C67.8,13,66,11.6,66,9.1z
		 M74,8.2V7.6c-0.4-0.2-1.1-0.3-1.7-0.3c-1.3,0-2,0.6-2,1.6v0c0,0.9,0.6,1.4,1.6,1.4C73.1,10.2,74,9.4,74,8.2z"/>
	<path class="st0" d="M1.1,32.4L1.1,32.4c0-4.8,3.7-8.5,8.7-8.5c2.8,0,4.9,0.9,6.6,2.4l-2.6,3.2c-1.2-1-2.3-1.5-3.9-1.5
		c-2.3,0-4.1,2-4.1,4.4v0c0,2.6,1.8,4.5,4.4,4.5c1.1,0,1.9-0.2,2.6-0.7v-2H9.5V31h7.5v7.3c-1.7,1.4-4.1,2.5-7,2.5
		C4.9,40.8,1.1,37.4,1.1,32.4z"/>
	<path class="st0" d="M19.6,32.4L19.6,32.4c0-4.7,3.7-8.5,8.7-8.5s8.7,3.7,8.7,8.4v0c0,4.7-3.8,8.4-8.7,8.4
		C23.3,40.8,19.6,37.1,19.6,32.4z M32.5,32.4L32.5,32.4c0-2.4-1.7-4.4-4.2-4.4c-2.5,0-4.1,2-4.1,4.3v0c0,2.3,1.7,4.4,4.1,4.4
		C30.8,36.8,32.5,34.8,32.5,32.4z"/>
	<path class="st0" d="M39.5,32.4L39.5,32.4c0-4.7,3.7-8.5,8.7-8.5s8.7,3.7,8.7,8.4v0c0,4.7-3.8,8.4-8.7,8.4
		C43.2,40.8,39.5,37.1,39.5,32.4z M52.4,32.4L52.4,32.4c0-2.4-1.7-4.4-4.2-4.4c-2.5,0-4.1,2-4.1,4.3v0c0,2.3,1.7,4.4,4.1,4.4
		C50.7,36.8,52.4,34.8,52.4,32.4z"/>
	<path class="st0" d="M60,24.3h6.2c5.8,0,9.1,3.3,9.1,8v0c0,4.7-3.4,8.1-9.2,8.1H60V24.3z M66.3,36.5c2.7,0,4.5-1.5,4.5-4.1v0
		c0-2.6-1.8-4.1-4.5-4.1h-1.8v8.2H66.3z"/>
	<path class="st0" d="M89.5,28.2h-4.9v-3.9h14.2v3.9H94v12.3h-4.5V28.2z"/>
	<path class="st0" d="M101.6,24.3h4.5v16.2h-4.5V24.3z"/>
	<path class="st0" d="M109.8,24.3h4.7l3.9,6.3l3.9-6.3h4.7v16.2h-4.5v-9.3l-4.1,6.3h-0.1l-4.1-6.3v9.3h-4.4V24.3z"/>
	<path class="st0" d="M130.6,24.3h13v3.8H135v2.5h7.8v3.5H135v2.6h8.7v3.8h-13.1V24.3z"/>
	<path class="st0" d="M0,65.9l2.5-3c1.6,1.3,3.4,1.9,5.3,1.9c1.2,0,1.9-0.4,1.9-1.1v0c0-0.7-0.5-1-2.7-1.6c-3.4-0.8-6.1-1.8-6.1-5.1
		v0c0-3,2.4-5.2,6.3-5.2c2.8,0,4.9,0.7,6.7,2.2l-2.2,3.2c-1.5-1-3.1-1.6-4.5-1.6c-1.1,0-1.6,0.5-1.6,1v0c0,0.7,0.6,1.1,2.8,1.6
		c3.7,0.8,6,2,6,5v0c0,3.3-2.6,5.3-6.6,5.3C4.7,68.6,2,67.7,0,65.9z"/>
	<path class="st0" d="M18.8,61.2v-9.1h4.6v9c0,2.3,1.2,3.4,3,3.4c1.8,0,3-1.1,3-3.3v-9.1h4.6v9c0,5.2-3,7.5-7.6,7.5
		S18.8,66.3,18.8,61.2z"/>
	<path class="st0" d="M39.2,52.1h6.9c4.1,0,6.7,2.1,6.7,5.7v0c0,3.8-2.9,5.8-7,5.8h-2.2v4.6h-4.5V52.1z M45.8,60.1
		c1.6,0,2.6-0.8,2.6-2.1v0c0-1.4-1-2.1-2.6-2.1h-2.1v4.3H45.8z"/>
	<path class="st0" d="M57.5,52.1h6.9c4.1,0,6.7,2.1,6.7,5.7v0c0,3.8-2.9,5.8-7,5.8h-2.2v4.6h-4.5V52.1z M64.1,60.1
		c1.6,0,2.6-0.8,2.6-2.1v0c0-1.4-1-2.1-2.6-2.1h-2.1v4.3H64.1z"/>
	<path class="st0" d="M75.7,52.1h4.5v12.3H88v3.9H75.7V52.1z"/>
	<path class="st0" d="M144,64.4v3.9h-23.1v-3.9H144z"/>
	<path class="st0" d="M94.3,62.2l-6.2-10.1h5.1l3.3,5.9l3.4-5.9h5l-6.2,10.1v6.1h-4.5V62.2z"/>

	<path class="st0" d="M120.2,57.5L120.2,57.5c0-3.1,2.4-5.6,5.8-5.6c2.2,0,3.7,1,4.6,2.4l-2.6,1.9c-0.5-0.7-1.1-1.1-2-1.1
		c-1.2,0-2.1,1.1-2.1,2.4v0c0,1.4,0.9,2.4,2.1,2.4c0.9,0,1.5-0.4,2.1-1.1l2.5,1.8c-1,1.5-2.4,2.5-4.8,2.5
		C122.6,63,120.2,60.5,120.2,57.5z"/>
	<path class="st0" d="M131.9,57.5L131.9,57.5c0-3.1,2.5-5.7,6-5.7c3.4,0,5.9,2.5,5.9,5.6v0c0,3.1-2.5,5.6-6,5.6
		C134.4,63,131.9,60.5,131.9,57.5z M140.1,57.5L140.1,57.5c0-1.4-1-2.5-2.3-2.5c-1.4,0-2.2,1.1-2.2,2.4v0c0,1.3,1,2.4,2.3,2.4
		C139.2,59.8,140.1,58.8,140.1,57.5z"/>
</svg>
