<svg xmlns="http://www.w3.org/2000/svg" xmlns:xlink="http://www.w3.org/1999/xlink" viewBox="0 0 223.5 49">
<style type="text/css">
	.st0{fill:#FFFFFF;}
</style>
<g>
	<path class="st0" d="M84.4,19.4c-0.4,0-0.8-0.1-1.1-0.3l-26.2-14l-26.2,14c-0.7,0.4-1.6,0.4-2.3,0L1.3,4.6c-1.2-0.6-1.6-2.1-1-3.3
		c0.6-1.2,2.1-1.6,3.3-1l26.2,14l26.2-14c0.7-0.4,1.6-0.4,2.3,0l26.2,14l26.2-14c0.7-0.4,1.6-0.4,2.3,0l26.2,14l26.2-14
		c0.7-0.4,1.6-0.4,2.3,0l26.2,14l26.2-14c1.2-0.6,2.6-0.2,3.3,1c0.6,1.2,0.2,2.6-1,3.3l-27.3,14.6c-0.7,0.4-1.6,0.4-2.3,0l-26.2-14
		l-26.2,14c-0.7,0.4-1.6,0.4-2.3,0l-26.2-14l-26.2,14C85.2,19.4,84.8,19.4,84.4,19.4z"/>
</g>
<g>
	<path class="st0" d="M84.4,49c-0.4,0-0.8-0.1-1.1-0.3l-26.2-14l-26.2,14c-0.7,0.4-1.6,0.4-2.3,0L1.3,34.1c-1.2-0.6-1.6-2.1-1-3.3
		c0.6-1.2,2.1-1.6,3.3-1l26.2,14l26.2-14c0.7-0.4,1.6-0.4,2.3,0l26.2,14l26.2-14c0.7-0.4,1.6-0.4,2.3,0l26.2,14l26.2-14
		c0.7-0.4,1.6-0.4,2.3,0l26.2,14l26.2-14c1.2-0.6,2.6-0.2,3.3,1c0.6,1.2,0.2,2.6-1,3.3l-27.3,14.6c-0.7,0.4-1.6,0.4-2.3,0l-26.2-14
		l-26.2,14c-0.7,0.4-1.6,0.4-2.3,0l-26.2-14l-26.2,14C85.2,48.9,84.8,49,84.4,49z"/>
</g>
</svg>
