
<svg version="1.1" xmlns="http://www.w3.org/2000/svg" xmlns:xlink="http://www.w3.org/1999/xlink" viewBox="0 0 130 130">
<style type="text/css">
  .st0{fill:none;stroke:#FFFFFF;stroke-width:7;stroke-miterlimit:10;}
  .st1{fill:#FFFFFF;}
</style>
<defs>
</defs>
<circle class="st0" cx="65" cy="65" r="61.5"/>
<g>
  <g>
    <path class="st1" d="M58.3,55.1l-12-2.2c1-3.8,2.9-6.8,5.8-8.8c2.8-2,6.9-3.1,12.1-3.1c6,0,10.3,1.1,13,3.3c2.7,2.2,4,5,4,8.4
      c0,2-0.5,3.8-1.6,5.4c-1.1,1.6-2.7,3-4.9,4.2c1.8,0.4,3.1,0.9,4.1,1.5c1.5,0.9,2.7,2.2,3.5,3.7c0.8,1.5,1.3,3.4,1.3,5.5
      c0,2.7-0.7,5.2-2.1,7.7s-3.4,4.3-6,5.7c-2.6,1.3-6.1,2-10.3,2c-4.2,0-7.5-0.5-9.9-1.5c-2.4-1-4.4-2.4-5.9-4.3
      c-1.6-1.9-2.7-4.3-3.6-7.1l12.7-1.7c0.5,2.6,1.3,4.3,2.3,5.3c1.1,1,2.4,1.5,4,1.5c1.7,0,3.1-0.6,4.3-1.9c1.1-1.3,1.7-2.9,1.7-5
      c0-2.1-0.5-3.8-1.6-4.9c-1.1-1.2-2.6-1.8-4.5-1.8c-1,0-2.4,0.3-4.1,0.8l0.7-9.1c0.7,0.1,1.3,0.2,1.7,0.2c1.7,0,3.1-0.5,4.2-1.6
      c1.1-1.1,1.7-2.3,1.7-3.8c0-1.4-0.4-2.5-1.2-3.3c-0.8-0.8-2-1.3-3.4-1.3c-1.5,0-2.7,0.5-3.7,1.4C59.2,51.2,58.6,52.8,58.3,55.1z"
      />
  </g>
</g>
</svg>