<svg version="1.1" xmlns="http://www.w3.org/2000/svg" xmlns:xlink="http://www.w3.org/1999/xlink" viewBox="0 0 129.9 129.9">
  <style type="text/css">
    .st0{fill:none;stroke:#FFFFFF;stroke-width:7;stroke-miterlimit:10;}
    .st1{fill:#FFFFFF;}
  </style>
  <circle class="st0" cx="65" cy="65" r="61.5"/>
  <path class="st1" d="M83.3,88.7H46.6V81c2.8-2,5.6-4.2,8.4-6.5c2.8-2.3,5.1-4.2,6.7-5.9c2.5-2.4,4.3-4.6,5.4-6.4
    c1.1-1.8,1.6-3.6,1.6-5.4c0-2.1-0.7-3.8-2.1-4.9c-1.4-1.2-3.3-1.7-5.9-1.7c-1.9,0-3.9,0.4-6.1,1.2c-2.1,0.8-4.1,1.8-5.9,3h-1V44.1
    c1.5-0.6,3.7-1.3,6.6-1.9c2.9-0.6,5.8-1,8.7-1c5.8,0,10.3,1.2,13.4,3.7c3.1,2.5,4.6,5.9,4.6,10.4c0,2.9-0.7,5.7-2.2,8.4
    c-1.5,2.7-3.7,5.4-6.7,8.2c-1.9,1.8-3.8,3.4-5.7,4.8c-1.9,1.5-3.3,2.5-4.1,3.1h20.9V88.7z"/>
</svg>
