<!-- Generator: Adobe Illustrator 22.0.1, SVG Export Plug-In  -->
<svg version="1.1"
	 xmlns="http://www.w3.org/2000/svg" xmlns:xlink="http://www.w3.org/1999/xlink" xmlns:a="http://ns.adobe.com/AdobeSVGViewerExtensions/3.0/"
	 x="0px" y="0px" width="3423.3px" height="3545.6px" viewBox="0 0 3423.3 3545.6"
	 style="enable-background:new 0 0 3423.3 3545.6;" xml:space="preserve">
<style type="text/css">
	.st0{fill:#2B2B2B;}
</style>
<defs>
</defs>
<g>
	
		<image style="overflow:visible;" width="1518" height="1517" id="Layer_0_xA0_Image_2_" xlink:href="F0C859A80A2AA634.png"  transform="matrix(1.8526 0 0 1.8749 331.9306 349.104)">
	</image>
</g>
<g>
	<path class="st0" d="M533.5,2685.2l-48.8,31.2l-10.4-16.3c4.2-5,7.7-9.7,10.6-14.1c2.9-4.3,5-8.3,6.5-11.9
		c1.5-3.6,2.3-7.1,2.5-10.4c0.2-3.3-0.5-6.7-1.8-10.2c-1.4-3.5-3.5-7.4-6.2-11.7l-33.6-52.7l-84.6,54.1l22.7,35.7
		c3.1,4.9,6.2,8.3,9.3,10.2c3.1,1.9,6.9,2.8,11.3,2.5s10.6-1.7,18.5-4.5l10,15.7l-62,39.7l-10-15.7c5.5-5.7,9.2-10.5,11.3-14.5
		c2.1-4,3-7.7,2.7-11.2c-0.3-3.5-2.1-7.9-5.4-13.1l-22.7-35.7l-93.2,59.6l33,51.8c3.5,5.4,6.7,9.6,9.8,12.4
		c3.1,2.8,6.5,4.7,10.3,5.8c3.8,1,8,1.4,12.8,1c4.8-0.4,9.5-1.2,14.1-2.3c4.6-1.2,11.3-3,20.1-5.4l10.5,16.5l-58.7,33.1l-98.3-154.4
		l7.9-5.1c6.1,5.8,11,9.2,14.5,10.2c3.6,1,7.5,0.6,11.9-1.1c4.3-1.8,10.5-5.2,18.5-10.3l139.7-89.4c7.4-4.8,12.7-8.5,15.7-11.2
		c3-2.7,5.1-5.3,6.2-7.8c1.1-2.5,1.5-5.1,1.3-8c-0.2-2.8-1.3-7.3-3.1-13.3l7.9-5.1L533.5,2685.2z"/>
	<path class="st0" d="M425,2963.3l7.1-6.1c5.3,3.8,9.2,6.2,11.7,7.3c2.5,1.1,5,1.4,7.4,1c2.4-0.4,4.9-1.8,7.6-4
		c2.6-2.2,5-4.9,7.1-7.9c2.1-3,4.6-6.9,7.5-11.6l7.5-12.2l-54-63l-9.7,3.4c-7.4,2.5-12.8,4.7-16.2,6.3c-3.4,1.7-6.2,3.5-8.4,5.4
		c-4.2,3.6-6.3,7.4-6.4,11.6c-0.1,4.1,1.8,9.7,5.6,16.7l-7.1,6.1l-48.7-56.9l7.1-6.1c3.6,3,7.3,5,11.2,5.9c3.9,0.9,8.5,1,13.9,0.3
		c5.4-0.7,13.6-2.7,24.6-5.9l165.7-47.7l18.1,21.2l-84.9,149.7c-4.4,7.8-7.5,13.7-9.1,17.8c-1.6,4.1-2.4,7.8-2.2,11.3
		c0.2,3.4,1.5,7.6,4,12.5l-7.1,6.1L425,2963.3z M443.1,2861.6l46.3,54l47.5-83.4L443.1,2861.6z"/>
	<path class="st0" d="M626.3,3159l-11.9-6.5l-2.4-17.8c-8.6-2.2-16.3-5.1-23-8.6c-6.7-3.5-14-8.7-21.8-15.8
		c-22-19.7-32.8-40.8-32.3-63.3c0.5-22.6,11.9-46.4,34.4-71.6c14.1-15.7,29.3-26.9,45.9-33.4c16.5-6.5,33.2-8,50.1-4.4
		c16.9,3.6,32.9,12.2,48.1,25.8c7.9,7,15.1,14.3,21.8,21.8c6.7,7.5,13.3,16.4,19.9,26.8l-30.4,34l-13.7-12.2
		c3.9-9.7,6-18.2,6.2-25.6c0.2-7.4-1.1-13.8-4-19.4c-2.9-5.6-7.5-11.2-13.8-16.8c-8.5-7.6-18.2-11.9-29.1-12.8
		c-10.8-0.9-22.3,1.8-34.5,8.3c-12.1,6.5-24.4,16.6-36.7,30.4c-8.8,9.8-16,19.5-21.8,29.1c-5.8,9.6-9.6,18.8-11.5,27.7
		c-1.9,8.8-1.7,17.2,0.6,25.1c2.3,7.9,7.1,15.1,14.4,21.6c9.5,8.5,18.1,13.1,25.8,13.7c7.6,0.6,14.9-2.9,21.9-10.8l5-5.6
		c5.1-5.7,8.7-10.4,10.7-14.1c2-3.7,2.7-7.3,2.2-10.9c-0.5-3.6-2.8-8.3-6.9-14.2l6.3-7l55.7,49.7l-6.3,7c-5.2-2.4-9.5-3.6-12.8-3.5
		c-3.3,0.1-6.6,1.4-9.9,3.7c-3.3,2.3-7.6,6.5-12.9,12.4L626.3,3159z"/>
	<path class="st0" d="M859.9,3081l-5.3,7.7c-6.6-2.7-11.8-3.8-15.5-3.4c-3.7,0.4-7.2,2-10.4,4.8c-3.2,2.8-6.9,7.3-11.2,13.5
		l-80.4,116.7l31.4,21.6c5.8,4,10.5,6.6,14.1,7.9c3.6,1.3,7.4,1.7,11.2,1.1c3.9-0.6,8.3-2.5,13.3-5.5c5-3.1,12.5-9,22.4-17.9
		l15.3,10.5l-39,49.6l-125.3-86l5.3-7.7c6.6,2.5,11.7,3.6,15.4,3.2c3.7-0.3,7.2-1.9,10.4-4.7c3.3-2.8,7-7.2,11.2-13.3l65.6-95.2
		c4.3-6.2,7.1-11.3,8.5-15.2c1.4-3.9,1.7-7.7,0.8-11.2c-0.9-3.6-3.8-8-8.7-13.4l5.3-7.7L859.9,3081z"/>
	<path class="st0" d="M986.9,3176.7l-33.6,64.6l27.9,14.4c4.6,2.4,8.4,3.6,11.6,3.8c3.2,0.2,6.2-0.6,9.2-2.3c3-1.8,6.7-5,11-9.6
		l15.3,7.9l-27.4,52.7l-15.3-7.9c1.2-5.4,1.7-10,1.5-13.7c-0.2-3.7-1.1-6.8-2.9-9.3c-1.8-2.5-5.2-5.1-10.4-7.7l-27.9-14.4
		l-37.3,71.6l43.9,22.7c5.6,2.9,10.3,4.9,14.2,5.9c3.8,1,7.5,1.2,10.9,0.5c3.4-0.7,7.2-2.4,11.4-5.2c4.2-2.8,10.3-8.1,18.4-15.8
		l16.5,8.5l-27.9,46.2l-145.4-75.2l4.3-8.3c6.9,1.7,12.1,2.1,15.7,1.3c3.6-0.8,6.9-2.8,9.8-5.9c2.9-3.2,6.1-8,9.5-14.6l53.4-102.5
		c3.5-6.7,5.7-12.1,6.6-16.1c0.9-4.1,0.7-7.8-0.6-11.2c-1.3-3.4-4.8-7.5-10.3-12.3l4.3-8.3l145.2,75.1l-21.6,41.5l-16.5-8.5
		c1.1-9,1.4-16.2,0.8-21.4c-0.6-5.2-2.2-9.5-4.8-12.8c-2.6-3.3-6.9-6.5-13-9.7L986.9,3176.7z"/>
	<path class="st0" d="M1241.3,3360.4l-17.8,62.7c-2.5,8.8-4,15.4-4.4,19.6c-0.4,4.2-0.2,7.5,0.6,9.9c0.8,2.4,2.3,4.6,4.3,6.6
		c2,2,5.8,4.6,11.2,7.8l-2.6,9l-80.4-22.4l2.6-9c8.4,0.2,14.3-0.5,17.7-2.1c3.3-1.7,6.1-4.6,8.1-8.8c2.1-4.2,4.4-10.8,7-19.9
		l45.2-159.5c2.4-8.5,3.8-14.7,4.3-18.8c0.5-4,0.3-7.4-0.6-9.9c-0.9-2.6-2.3-4.8-4.3-6.8c-2-2-5.8-4.6-11.2-7.8l2.6-9l94.3,26.3
		c29.7,8.3,50.5,19.7,62.3,34.3c11.8,14.6,14.5,32.8,8.3,54.8c-4.8,16.8-13.6,29.8-26.6,38.9c-12.9,9.1-29.9,14.3-51,15.6l-0.4,1.5
		c6.9,5.2,12.3,11.5,16.2,18.7c3.9,7.3,7.5,17.8,10.8,31.8l8.6,35c2.4,10.2,4.8,18.2,7,23.8c2.2,5.7,4.8,10.2,7.8,13.7
		c3,3.5,7.4,6.6,13.2,9.3l-2.6,9l-52.8-14.7c-3-7.9-5.6-16.1-7.8-24.8c-2.2-8.7-4.3-17.5-6.3-26.4l-8-35.5
		c-2.4-10.8-4.6-18.8-6.6-24.1s-4.1-9.3-6.3-11.8c-2.2-2.5-4.8-4.6-7.7-6.1c-2.9-1.5-7.5-3.2-13.7-4.9L1241.3,3360.4z
		 M1276.8,3235.1l-31,109.5l21.5,6c11.1,3.1,20.2,4.8,27.5,5.2c7.3,0.4,14.5-0.8,21.5-3.4c7.1-2.7,13.4-7.4,19.1-14.1
		c5.7-6.7,10.1-15.6,13.3-26.8c3.3-11.7,4-22,2.1-30.9c-1.9-8.9-6.5-16.5-13.8-22.9s-18-11.6-32.2-15.5
		C1293.4,3238.9,1284,3236.6,1276.8,3235.1z"/>
	<path class="st0" d="M1487.1,3529.8l-78.4-12.2l1.5-9.3c7-0.6,12.1-1.8,15.3-3.7c3.2-1.9,5.6-4.8,7.4-8.7c1.8-3.9,3.2-9.5,4.4-16.9
		l18.2-114c1.2-7.4,1.6-13.2,1.2-17.4c-0.4-4.1-1.8-7.6-4.1-10.4c-2.4-2.8-6.9-5.6-13.7-8.3l1.5-9.3l78.4,12.2l-1.5,9.3
		c-7.4,0.5-12.7,1.8-15.7,3.8c-3.1,2-5.4,4.9-7.1,8.9c-1.7,3.9-3.1,9.5-4.3,16.7l-18.2,114c-1.2,7.4-1.6,13.3-1.1,17.5
		c0.5,4.2,1.9,7.7,4.4,10.6c2.5,2.8,6.9,5.5,13.3,8.1L1487.1,3529.8z"/>
	<path class="st0" d="M1619.4,3341.1l-0.5,9.4c-6.3,1.1-10.7,2.3-13.3,3.5c-2.6,1.2-4.5,2.9-5.8,4.9c-1.3,2-2,4.7-2.2,8
		c-0.2,3.4,0.1,7,0.8,10.8c0.7,3.7,1.8,8.1,3.3,13.2l33,116l50.4-102.8c3.4-7,6-12.9,7.7-17.6c1.7-4.8,2.7-9.2,2.9-13.3
		c0.3-5.4-1-9.5-3.9-12.5c-2.9-2.9-8.2-5.4-16.1-7.5l0.5-9.4l74.8,3.6l-0.5,9.4c-5.1,0.9-9,2.3-11.8,4c-2.8,1.8-5.6,4.7-8.5,8.6
		c-2.9,4-6.6,10.4-11.3,19.4l-81.3,156.9l-24.9-1.2l-49.7-164.3c-2.9-9.6-5.4-16.3-7.4-20s-4.3-6.6-6.9-8.7c-2.6-2-6.3-3.7-11.1-4.9
		l0.5-9.4L1619.4,3341.1z"/>
	<path class="st0" d="M1819.8,3356.4l5.7,72.5l31.4-2.6c5.1-0.4,9.1-1.4,11.9-2.9c2.8-1.5,5-3.8,6.6-6.9c1.6-3.1,3-7.7,4.3-14
		l17.2-1.4l4.6,59.1l-17.2,1.4c-1.9-5.2-3.8-9.3-5.9-12.4c-2.1-3-4.5-5.1-7.3-6.3c-2.8-1.2-7.1-1.5-12.9-1l-31.4,2.6l6.3,80.3
		l49.4-4.1c6.3-0.5,11.4-1.4,15.2-2.5c3.8-1.1,7-2.9,9.5-5.3c2.5-2.4,4.8-5.9,6.9-10.5c2.1-4.6,4.5-12.3,7.2-23.2l18.6-1.5l0.8,53.9
		l-163.5,13.5l-0.7-9.3c6.7-2.2,11.4-4.6,14-7.2c2.6-2.6,4.4-6,5.2-10.2c0.8-4.2,0.9-10,0.3-17.4l-9-115c-0.6-7.5-1.6-13.2-2.9-17.1
		c-1.4-3.9-3.5-7-6.5-9.2c-3-2.2-8-3.8-15.3-4.9l-0.7-9.3l163.3-13.5l3.6,46.5l-18.6,1.5c-3.8-8.3-7.4-14.4-10.7-18.5
		c-3.3-4.1-6.9-6.8-10.9-8.2c-4-1.4-9.4-1.8-16.2-1.3L1819.8,3356.4z"/>
	<path class="st0" d="M2080.5,3505.7l-80.5,17.7l-2-9.2c6.4-3.1,10.7-6.1,13-9c2.3-2.9,3.5-6.5,3.8-10.8c0.2-4.3-0.4-10-2-17.3
		l-24.3-112.9c-1.6-7.3-3.3-12.9-5.2-16.6c-1.9-3.7-4.4-6.4-7.6-8.2c-3.2-1.8-8.5-2.7-15.8-2.8l-1.9-9l94.1-20.7
		c19.1-4.2,34.9-5.5,47.3-3.9c12.4,1.6,22,5.6,28.7,12.2c6.7,6.6,11.3,15.6,13.8,27.2c1.2,5.6,1.5,10.8,0.9,15.6
		c-0.6,4.8-1.9,9.3-3.8,13.7c-2,4.3-4.7,8.5-8,12.5c-3.4,4-7.3,7.8-11.6,11.3c-4.3,3.5-10.3,7.6-17.9,12.3l0.6,1.6
		c6.4,1.1,12.5,3.2,18.1,6.5c5.6,3.3,12,8.3,19,15.1l21.4,21.1c5,5,9.2,8.8,12.7,11.4c3.5,2.6,6.9,4.4,10.4,5.5
		c3.5,1.1,7.9,1.6,13.3,1.5l2,9.2l-49.4,10.9c-7.2-6-16.1-14.8-26.6-26.5l-20.9-22.8c-6.3-6.8-11.6-11.6-15.8-14.2
		c-4.2-2.7-8.4-4.3-12.5-4.8c-4.1-0.5-10,0.1-17.8,1.8l-17.6,3.9l7.7,35.9c2.1,10,4.3,17.1,6.5,21.5c2.2,4.4,5.1,7.4,8.8,9.1
		c3.7,1.7,9.5,2.4,17.6,2.1L2080.5,3505.7z M2017.2,3331.5l17.5,81.1l27.9-6.1c17.6-3.9,29.9-10.2,37-19.1
		c7.1-8.9,9.1-20.3,6.1-34.4c-2.1-10-5.9-17.5-11.3-22.5c-5.4-5-12-7.9-19.9-8.6c-7.9-0.7-17.2,0.1-28.1,2.5
		C2035.3,3326.8,2025.6,3329.2,2017.2,3331.5z"/>
	<path class="st0" d="M2258.1,3410.9c4.5,7.9,8.1,16,10.7,24.2c2.7,8.5,3.7,16.7,3,24.8c-0.8,8-3.3,16.6-7.7,25.7
		c-4.4,9.1-11,19.8-19.8,31.9l-13.8-7.8c4.5-7.9,7.5-14.7,8.9-20.3c1.4-5.6,1.8-11.6,1.1-17.9c-0.7-6.4-2.4-14-5.3-23
		c-3-9.2-6.3-18.2-10.1-26.9L2258.1,3410.9z"/>
	<path class="st0" d="M2547.9,3332l-4.3-8.3c5.3-4.2,9-7.7,11.1-10.6c2.2-2.9,3.3-5.9,3.5-9c0.1-3.2-0.8-6.8-3-10.8
		c-2-3.8-4.6-7.7-7.9-11.7c-3.3-4-7.2-8.3-11.9-12.9l-17.9-18.4l-81.9,42.9l2.7,19.7c1.3,10,2.6,17.3,3.9,22.1
		c1.3,4.8,2.9,8.9,4.7,12.4c3.5,6.8,7.9,10.8,13.1,12.1c5.2,1.3,11.8,0.5,19.7-2.4l4.3,8.3l-75,39.4l-4.3-8.3
		c6-4.5,9.8-11.1,11.4-20c1.6-8.9,1.6-20.4,0-34.5l-24.4-225.9l27.8-14.6l158.2,157.5c7.4,7.3,13.4,12.7,18,16.2
		c4.6,3.5,9.1,5.7,13.5,6.7c4.4,1,9.6,0.7,15.5-0.8l4.3,8.3L2547.9,3332z M2432.8,3276l73.5-38.5l-90.3-91.7L2432.8,3276z"/>
	<path class="st0" d="M2611,3056.1l5.4,7.6c-4.8,5.3-7.7,9.8-8.6,13.4c-0.9,3.6-0.6,7.4,0.9,11.3c1.5,3.9,4.4,9,8.8,15.1l81.8,115
		l31.2-22.2c5.7-4.1,9.8-7.6,12.3-10.6c2.5-3,4.2-6.4,4.9-10.2c0.8-3.8,0.6-8.6-0.6-14.4c-1.2-5.7-4.2-14.8-9-27.1l15.2-10.8
		l33.1,53.4l-124.3,88.6l-5.4-7.6c4.6-5.3,7.4-9.8,8.4-13.4c1-3.6,0.7-7.4-0.8-11.4c-1.5-4-4.4-9-8.6-15.1l-66.7-93.8
		c-4.4-6.1-8.1-10.5-11.3-13.2c-3.2-2.7-6.6-4.2-10.3-4.5c-3.7-0.4-8.9,0.9-15.7,3.7l-5.4-7.6L2611,3056.1z"/>
	<path class="st0" d="M2913.1,3064.9l-6.3-6.9c3.6-5.4,5.9-9.4,6.9-12c1-2.5,1.2-5,0.7-7.4c-0.5-2.4-1.9-4.9-4.3-7.4s-5-4.8-8.1-6.8
		c-3.1-2-7.1-4.3-11.9-7l-12.4-7l-61.2,56.6l3.7,9.6c2.8,7.3,5.1,12.6,6.8,15.9c1.8,3.3,3.7,6,5.7,8.2c3.7,4,7.6,6,11.8,5.9
		c4.1-0.1,9.6-2.2,16.5-6.3l6.3,6.9l-55.2,51.1l-6.3-6.9c2.9-3.7,4.7-7.5,5.5-11.5c0.8-3.9,0.7-8.6-0.1-13.9
		c-0.9-5.3-3.1-13.5-6.7-24.4l-53.1-163.6l20.6-19l152.3,78.6c7.9,4.1,14,6.9,18.1,8.3c4.1,1.5,7.9,2,11.3,1.7
		c3.4-0.3,7.5-1.8,12.4-4.6l6.3,6.9L2913.1,3064.9z M2810.9,3051l52.5-48.5l-84.9-44L2810.9,3051z"/>
	<path class="st0" d="M2970,2936c9.2,3.7,17.1,5.7,23.8,5.9c6.7,0.2,13.1-1.3,19-4.6c5.9-3.3,12.1-8.7,18.5-16.3
		c8.4-10,12.9-19.6,13.4-28.7c0.5-9.1-3.3-17-11.4-23.8c-4.5-3.8-9-6.2-13.6-7.3c-4.6-1.1-10.3-0.7-17.2,1.2
		c-6.9,1.9-18.9,7.2-36,16c-12.5,6.5-22.4,10.9-30,13.3c-7.5,2.4-14.4,3.7-20.7,3.8c-6.3,0.2-11.8-0.6-16.6-2.3
		c-4.8-1.7-9.3-4.3-13.7-8c-7.5-6.3-12.6-13.3-15.4-21c-2.8-7.7-3.6-15.7-2.5-24.2s3.9-16.9,8.5-25.6c4.5-8.6,10.3-17.1,17.2-25.2
		c6.4-7.6,13-14.8,19.9-21.5c6.9-6.8,14.9-13.9,24.2-21.3l33.6,28.3l-12.4,14.7c-9.7-2.7-17.8-4-24.1-3.9
		c-6.3,0.1-11.9,1.4-16.9,4.1c-5,2.6-10.1,7.1-15.4,13.4c-7.8,9.2-11.9,18.2-12.3,27c-0.4,8.8,2.9,16.2,9.9,22.1
		c5,4.2,9.9,6.8,14.7,7.9c4.9,1.1,10.5,0.7,17.1-1.2c6.5-1.8,17.2-6.6,31.8-14.3c9-4.7,17.3-8.7,25-12c7.7-3.3,14.9-5.5,21.7-6.6
		c6.8-1.1,13.2-0.9,19.3,0.5c6.1,1.5,12,4.7,17.9,9.6c14.9,12.5,21.8,27,20.7,43.3c-1.1,16.3-10.1,34.5-27,54.5
		c-7.4,8.8-15.3,17-23.6,24.5s-16.8,14.7-25.4,21.5l-34.5-29L2970,2936z"/>
	<path class="st0" d="M3063.1,2717.5l3-4.7c3.5-5.4,5.8-10,7-13.8c1.1-3.8,1.6-8,1.4-12.8c-0.2-4.8-1.4-12.9-3.6-24.3
		c-2.2-11.4-4.3-20-6.3-25.6c-2-5.7-4-10-6.3-13.1c-2.2-3.1-4.9-5.6-7.9-7.5c-3.5-2.3-6.9-2.9-10.2-2c-3.3,1-6.8,3.8-10.6,8.4
		l-7.9-5.1l45.8-70.9l7.9,5.1c-1.9,4.4-3,9.8-3.3,16c-0.3,6.3,0.8,15.6,3.3,28.1l15.6,78l97.6-9.9c7.8-0.8,13.6-1.6,17.4-2.5
		c3.8-0.9,7.5-2.2,11-4c3.5-1.8,7.4-4.7,11.7-8.8l7.9,5.1l-44.6,69l-7.9-5.1c2-3.6,2.9-6.6,2.8-9.2c-0.2-2.5-1.4-4.6-3.8-6.1
		c-2.4-1.5-5-2.5-7.9-3.1c-2.9-0.5-8.6-0.4-17.2,0.4l-54,5.1c-2.8,0.3-5.1,0.6-6.9,0.9c-1.9,0.3-3.6,0.8-5.2,1.4
		c-1.6,0.6-3,1.3-4.1,2.2c-1.1,0.8-2.4,2-3.7,3.4c-1.3,1.4-2.8,3.5-4.5,6.2l-4.4,6.8l45.6,29.3c6.3,4.1,11.5,6.7,15.5,8
		c4,1.3,7.9,1.3,11.5,0.2c3.6-1.1,7.9-4.1,12.8-9l7.9,5.1l-43.2,66.9l-7.9-5.1c2.3-6.7,3.3-11.8,2.9-15.5c-0.4-3.7-2.1-7.1-5-10.3
		c-2.9-3.2-7.4-6.8-13.6-10.8l-96.9-62.3c-6.3-4.1-11.5-6.7-15.4-8c-3.9-1.3-7.7-1.4-11.2-0.4c-3.5,1-7.9,4.1-13.2,9.2l-7.9-5.1
		l43.2-66.9l7.9,5.1c-2.6,7-3.6,12.3-3,15.9c0.6,3.6,2.3,6.9,5.2,10.1c2.9,3.1,7.4,6.7,13.5,10.6L3063.1,2717.5z"/>
	<path class="st0" d="M3302.5,2513.6l-8.5-3.9c1.3-6.4,1.9-11,1.8-13.7c-0.1-2.7-0.8-5.1-2.2-7.1c-1.4-2-3.6-3.7-6.8-5.2
		c-3.1-1.4-6.5-2.5-10.1-3.1c-3.6-0.7-8.2-1.3-13.6-1.9l-14.2-1.7l-35.1,75.6l7.1,7.4c5.4,5.7,9.5,9.7,12.4,12.1
		c2.9,2.4,5.7,4.2,8.3,5.4c5,2.3,9.4,2.6,13.2,0.9c3.8-1.7,8.1-5.7,12.9-12.1l8.5,3.9l-31.7,68.2l-8.5-3.9c1.3-4.5,1.5-8.7,0.7-12.7
		c-0.8-3.9-2.6-8.2-5.4-12.8c-2.9-4.6-8-11.2-15.5-19.9l-111.6-130.7l11.8-25.4l171.1,14.4c8.9,0.8,15.6,1,20,0.8
		c4.4-0.2,8.1-1.1,11.2-2.7c3-1.6,6.3-4.6,9.7-8.9l8.5,3.9L3302.5,2513.6z M3202.5,2539.9l30.1-64.8l-95.4-8.1L3202.5,2539.9z"/>
</g>
<g>
	<path class="st0" d="M270.1,1417.7c-3.4,15.3-9,28.7-16.9,40.2c-7.8,11.5-18.1,20.5-30.8,27.1c-12.7,6.6-27.9,10.6-45.6,11.8
		c-17.7,1.2-38.2-0.7-61.3-5.9c-28.5-6.3-52.1-16.1-70.6-29.3c-18.5-13.2-31.4-29.1-38.5-47.6c-7.1-18.5-8.3-38.4-3.6-59.8
		c5-22.7,14.3-40.7,27.8-54c13.5-13.3,30.9-21.7,52.1-25.2c21.3-3.5,45.9-2.2,73.9,4c29.9,6.6,54.2,16.7,72.8,30.2
		c18.6,13.5,31.2,29.5,37.9,48.1C274,1375.9,274.9,1396,270.1,1417.7z M118.9,1450.2c39.3,8.7,70.4,9.6,93.4,2.8
		c23-6.9,37-21.3,41.8-43.3c3.1-13.9,1.3-26.7-5.5-38.4c-6.7-11.7-18.1-21.8-34.2-30.5c-16.1-8.7-35.6-15.5-58.5-20.6
		c-27.9-6.2-51.7-8.5-71.3-6.9c-19.6,1.6-34.7,6.4-45.2,14.4c-10.5,8-17.2,18.5-20.1,31.5c-2.5,11.5-2.1,21.9,1.5,31.4
		c3.5,9.4,9.7,18,18.4,25.6c8.7,7.6,19.8,14.2,33.4,19.9C86.2,1441.7,101.6,1446.4,118.9,1450.2z"/>
	<path class="st0" d="M306.7,1262.1l-8.9-3.6c1-6.9,0.9-12.1-0.3-15.6c-1.2-3.5-3.6-6.5-7.1-9.1c-3.5-2.6-8.8-5.3-15.9-8.2
		l-109.8-44.8c-7.2-2.9-12.9-4.7-17.2-5.3c-4.3-0.6-8.1-0.1-11.4,1.5c-3.3,1.6-7,5.3-11.1,11l-8.9-3.6l29.2-71.6
		c7.8-19,15.8-34,24.2-45c8.4-11,18.1-19.4,29.2-25.3c11.1-5.9,23.5-8.9,37.2-9.1c13.7-0.1,28.9,3.2,45.7,10.1
		c16.5,6.7,30.1,15.2,40.6,25.3c9.9,9.3,17.2,19.9,21.8,31.9c4.6,12,6.4,25.1,5.3,39.3c-1.1,14.3-6,32-14.7,53.3L306.7,1262.1z
		 M152.8,1138.5l159.6,65.2c1.8-3.4,3.7-7.5,5.7-12.5l1.7-4.2c10.5-25.7,11.7-47.5,3.5-65.6c-8.1-18.1-25.8-32.7-53.1-43.8
		c-18.2-7.4-34.5-10.5-49-9.2c-14.5,1.3-26.8,6.4-37,15.4c-10.2,9-18.5,21.3-24.8,36.9C156,1129.1,153.8,1135.1,152.8,1138.5z"/>
	<path class="st0" d="M400.8,1041.6l-8.2-5c2.1-6.7,2.8-11.8,2.2-15.5c-0.6-3.6-2.5-7-5.6-10.1c-3.1-3.1-7.9-6.6-14.4-10.6
		l-101.2-61.7c-6.6-4-12-6.7-16.1-8c-4.1-1.3-8-1.4-11.5-0.4c-3.6,1.1-7.8,4.1-12.7,9.1l-8.2-5l40.2-66c10.7-17.5,21-31.1,31.1-40.6
		c10-9.5,21-16.3,32.9-20.4c11.9-4.1,24.7-5.1,38.2-3c13.6,2.1,28.1,7.8,43.5,17.2c15.2,9.3,27.3,19.8,36.1,31.4
		c8.3,10.7,13.8,22.4,16.5,35c2.6,12.6,2.3,25.8-1,39.7c-3.3,13.9-11,30.7-23,50.3L400.8,1041.6z M268.6,895.1l147.2,89.7
		c2.3-3,4.9-6.8,7.6-11.4l2.3-3.9c14.4-23.7,19.1-45.1,13.9-64.2c-5.1-19.1-20.3-36.4-45.5-51.7c-16.8-10.2-32.4-15.9-46.9-16.9
		c-14.5-1-27.5,2.1-39,9.3c-11.5,7.2-21.6,18.1-30.4,32.5C273.2,886.3,270.1,891.8,268.6,895.1z"/>
	<path class="st0" d="M611.1,376.6c-3.1,5-5.1,9-5.9,11.8c-0.8,2.8-1,5.5-0.6,8.1c0.4,2.6,1.9,5.7,4.4,9.3
		c2.5,3.6,6.9,8.7,13.2,15.2l118.2,122.2c6.1,6.3,10.8,10.7,14,13.2c3.2,2.5,6.2,4.1,8.8,4.9c2.6,0.7,5.5,0.7,8.5,0
		c3-0.7,7.2-2.6,12.7-5.7l6.7,6.9l-58.8,56.9l-6.7-6.9c4.1-6.5,6.3-11.6,6.8-15.3c0.4-3.7-0.6-7.6-3-11.6c-2.4-4-7.3-9.9-14.7-17.5
		L662.2,514c-13.8-14.2-27.5-28.8-41.1-43.8c-13.7-15-22.8-25.4-27.4-31.3l-2.4,2.3l79.6,194L654.7,651l-189.5-92.1l-2.4,2.3
		c6,5.3,16.5,15.3,31.6,29.9c15,14.7,30.2,30,45.6,45.9l50,51.7c6.1,6.3,10.8,10.7,14,13.2c3.2,2.5,6.2,4.1,8.8,4.9
		c2.6,0.7,5.5,0.7,8.5,0c3-0.7,7.2-2.6,12.7-5.7l6.7,6.9l-51.5,49.8l-6.7-6.9c4.4-7.1,6.7-12.6,6.8-16.3c0.2-3.7-1-7.6-3.7-11.6
		c-2.7-4-7.4-9.5-14.1-16.4L453.2,584.4c-6.3-6.5-11.1-11-14.4-13.5c-3.3-2.5-6.3-4.1-9-4.7c-2.7-0.6-5.4-0.5-8.1,0.2
		c-2.7,0.7-6.9,2.6-12.4,5.5l-6.7-6.9l50.3-48.7l182.5,89.6l-78.6-190.1l47.7-46.1L611.1,376.6z"/>
	<path class="st0" d="M927.7,472.3l-5.3-8c4.4-4.8,7.2-8.4,8.5-10.7c1.3-2.4,1.9-4.8,1.8-7.3c-0.2-2.5-1.2-5.2-3.2-8.2
		c-2-3-4.3-5.7-7.1-8.3c-2.8-2.6-6.4-5.6-10.8-9.1l-11.3-9.3l-68.7,45.5l2.3,10.3c1.7,7.8,3.2,13.5,4.5,17.2
		c1.3,3.6,2.8,6.7,4.4,9.2c3.1,4.7,6.7,7.4,10.8,8c4.1,0.7,9.9-0.4,17.2-3.3l5.3,8l-62,41.1l-5.3-8c3.4-3.2,5.7-6.7,7.1-10.5
		c1.3-3.8,1.9-8.4,1.8-13.9c-0.1-5.5-1.2-14-3.2-25.6l-29.4-173.4l23.1-15.3L948.2,407c7.3,5.6,12.9,9.4,16.8,11.6
		c3.9,2.2,7.6,3.5,11,3.8c3.4,0.3,7.7-0.4,12.9-2.3l5.3,8L927.7,472.3z M828.3,439.8l58.9-39l-78-59.4L828.3,439.8z"/>
	<path class="st0" d="M1142.3,300c-3.5-6.5-6.7-12.7-9.6-18.6c-2.9-6-5.6-11.9-8.3-17.7l-28.4-62.2c-3.2-7-6.2-12.2-8.9-15.6
		c-2.8-3.4-6-5.6-9.6-6.6c-3.7-1.1-8.8-0.9-15.6,0.4l-4-8.8l61.4-28l4,8.8c-5.6,4.4-9.2,8.3-10.7,11.7c-1.6,3.4-1.9,7.2-1.1,11.5
		c0.8,4.3,2.8,9.9,6,16.8l67.9,148.8l-20,9.1l-159.2-97c-4.6-2.8-9.3-6.1-14.2-9.8l-1.2,0.6c3.5,6.5,6.7,12.7,9.6,18.6
		c2.9,6,5.6,11.9,8.3,17.7l34.7,76c3.2,7,6.2,12.2,8.9,15.6c2.8,3.4,6,5.6,9.6,6.6c3.6,1.1,8.8,0.9,15.6-0.4l4,8.8l-61.4,28l-4-8.8
		c5.5-4.4,9-8.2,10.5-11.6c1.6-3.4,1.9-7.2,1.2-11.6c-0.8-4.3-2.7-10-5.9-16.9l-49.2-107.9c-3.2-7-6.1-12.2-8.8-15.5
		c-2.7-3.3-5.8-5.5-9.3-6.7c-3.5-1.1-8.9-1-16,0.4l-4-8.8l52.5-23.9l122.6,76.8c13.5,8.4,23.9,15.3,31.4,20.7L1142.3,300z"/>
	<path class="st0" d="M1380,159.8l12.8,65.6c1.8,9.3,3.5,15.9,5,20c1.5,4,3.2,7,5,8.8c1.8,1.8,4.1,3.2,6.8,4.1
		c2.7,0.9,7.2,1.6,13.4,2.1l1.8,9.5l-81.2,15.9l-1.8-9.5c7.6-3.6,12.4-6.9,14.6-10c2.2-3,3.3-6.9,3.2-11.7c-0.1-4.8-1-11.9-2.9-21.5
		l-32.6-166.9c-1.7-8.9-3.3-15.3-4.8-19.2c-1.4-3.9-3.1-6.9-5-8.8c-1.9-2-4.2-3.4-6.9-4.3c-2.7-0.9-7.2-1.6-13.4-2.1l-1.8-9.5
		l95.3-18.6c30-5.9,53.6-4.8,70.6,3.2c17,8,27.8,23.5,32.3,46.6c3.4,17.6,1.5,33.6-5.7,47.8c-7.3,14.2-19.9,26.7-37.9,37.5l0.3,1.5
		c8.5,1.7,16.1,5,22.8,9.9c6.8,4.9,14.8,13,24,24.2l23.5,28.3c6.8,8.3,12.5,14.5,17,18.7c4.5,4.2,8.9,7.2,13.2,9
		c4.2,1.8,9.5,2.7,15.9,2.5l1.8,9.5l-53.3,10.4c-6.2-5.9-12.3-12.3-18.2-19.3c-5.9-7-11.8-14.1-17.6-21.4l-23.2-28.9
		c-7-8.8-12.7-15.2-16.8-19.1c-4.2-4-7.8-6.6-11-8c-3.1-1.3-6.3-2-9.6-2.1c-3.3-0.1-8.1,0.5-14.4,1.7L1380,159.8z M1354.4,28.6
		l22.4,114.6l21.8-4.3c11.2-2.2,20.1-4.8,26.7-7.7c6.6-3,12.4-7.3,17.5-12.9c5-5.7,8.5-12.8,10.5-21.6c2-8.7,1.8-18.9-0.5-30.7
		c-2.4-12.2-6.5-22-12.2-29.3c-5.8-7.3-13.3-12.2-22.6-14.8c-9.3-2.6-21.1-2.5-35.5,0.3C1370.8,24.6,1361.4,26.7,1354.4,28.6z"/>
	<path class="st0" d="M1758.3,156.8c0.3,9.7,0,18.8-1.1,27.3c-1,8.5-3.3,16.2-6.7,23.1c-3.4,6.9-8.1,12.9-14,18
		c-5.9,5-13.7,9.1-23.3,12.2c-9.6,3.1-20.9,4.8-34,5.2c-9.3,0.3-17.7-0.1-25.2-1.2c-7.5-1.1-14.1-3-19.9-5.7
		c-5.8-2.7-10.7-6-14.7-9.9c-4-3.9-7.3-8.6-10-13.9c-2.7-5.4-4.7-11.7-6.2-19c-1.5-7.3-2.4-16.6-2.8-27.8l-2.8-85.1
		c-0.3-7.7-1-13.7-2.2-17.8c-1.2-4.2-3.2-7.4-6.1-9.7c-2.9-2.3-7.8-4.2-14.8-5.7l-0.3-9.6l78.6-2.6l0.3,9.6
		c-7.1,1.9-12,4.2-14.6,6.8c-2.6,2.6-4.4,6-5.3,10.3c-0.9,4.3-1.2,10.2-1,17.6l2.8,84.9c0.3,8.9,0.8,16.6,1.6,23
		c0.8,6.4,2.2,12.2,4.2,17.3c2,5.1,4.9,9.4,8.6,12.8c3.7,3.4,8.4,6,14,7.6c5.6,1.7,12.6,2.3,21,2.1c7.2-0.2,13.7-1.7,19.7-4.4
		c5.9-2.7,10.8-6.7,14.6-12.1c3.8-5.4,6.5-11.8,7.9-19.2c1.5-7.5,2-17.2,1.6-29.3l-2.8-85.7c-0.2-7.6-0.9-13.5-2-17.7
		c-1.1-4.2-3.1-7.5-6-9.8c-2.9-2.3-7.8-4.2-14.8-5.7l-0.3-9.6l73.7-2.4l0.3,9.6c-7.1,1.9-12,4.2-14.6,6.8c-2.6,2.6-4.4,6-5.3,10.3
		c-0.9,4.3-1.2,10.2-1,17.6L1758.3,156.8z"/>
	<path class="st0" d="M1846.3,190.4c1.9,10,4.7,17.9,8.2,23.7c3.5,5.9,8.2,10.4,14.2,13.5c6,3.2,13.8,5.3,23.6,6.3
		c12.9,1.4,23.2-0.3,30.9-5.2c7.8-4.8,12.2-12.6,13.4-23.5c0.6-6,0.2-11.3-1.4-15.8c-1.6-4.5-5.1-9.2-10.4-14
		c-5.3-4.8-16.3-11.9-32.9-21.4c-12.1-6.9-21.3-12.8-27.4-17.8c-6.1-5-10.9-10.1-14.5-15.4c-3.6-5.3-6-10.4-7.2-15.4
		c-1.2-5-1.5-10.4-0.9-16.3c1.1-10,4-18.4,8.9-25.2c4.8-6.8,11-12.2,18.5-16.1c7.5-3.9,16.1-6.5,25.7-7.6c9.6-1.1,19.7-1.1,30.2,0
		c9.8,1.1,19.3,2.6,28.6,4.5c9.3,1.9,19.6,4.7,30.8,8.3l-4.9,45l-18.9-2c-3.1-9.8-6.5-17.4-10-22.7c-3.5-5.3-7.7-9.3-12.6-12
		c-4.9-2.7-11.4-4.5-19.4-5.4c-11.8-1.3-21.5,0.4-29,5.2c-7.5,4.7-11.7,11.8-12.8,21.2c-0.7,6.6-0.2,12.3,1.6,17.1
		c1.8,4.7,5.2,9.4,10.3,13.9c5.1,4.5,14.8,10.8,29.2,18.8c8.8,4.9,16.7,9.7,23.6,14.3c6.9,4.6,12.7,9.5,17.4,14.6
		c4.6,5.1,8,10.7,10.1,16.7c2.1,6,2.7,13,1.9,20.8c-2.2,19.9-10.2,34.2-24.3,42.7c-14,8.5-33.9,11.4-59.6,8.6
		c-11.3-1.2-22.3-3.2-33.1-6c-10.8-2.7-21.3-5.8-31.6-9.2l5-46.1L1846.3,190.4z"/>
	<path class="st0" d="M2199.7,265.1c-2,7.6-3,13.6-3.1,17.9c0,4.3,1,8,3.2,11.1c2.2,3.1,6.2,6.2,12.1,9.4l-2.4,9.3l-75.5-19.7
		l2.4-9.3c7,0.1,12.2-0.7,15.5-2.4c3.3-1.7,6.1-4.4,8.1-8.2c2.1-3.8,4.1-9.4,6-16.7l13.9-53.1l-88.2-23.1l-13.9,53.1
		c-2,7.5-2.9,13.4-2.9,17.7c0,4.3,1.1,8.1,3.3,11.2c2.2,3.1,6.3,6.3,12.3,9.5l-2.4,9.3l-76.1-19.9l2.4-9.3c7,0.1,12.2-0.7,15.5-2.3
		c3.3-1.6,6.1-4.4,8.2-8.2c2.2-3.8,4.2-9.4,6.1-16.8l30-114.7c2-7.5,2.9-13.4,3-17.6c0-4.3-1-7.9-3-11c-2-3.1-6.2-6.4-12.6-9.8
		l2.4-9.3l76.1,19.9l-2.4,9.3c-7.4-0.2-12.7,0.6-15.9,2.3c-3.2,1.7-5.9,4.5-8,8.4c-2.1,3.9-4.1,9.4-6,16.6l-11.8,45.3l88.2,23.1
		l11.8-45.3c1.9-7.4,2.9-13.2,3.1-17.6c0.1-4.4-0.9-8.1-3-11.1c-2.1-3.1-6.3-6.3-12.6-9.7l2.4-9.3l75.5,19.7l-2.4,9.3
		c-7.3-0.1-12.5,0.7-15.8,2.5c-3.2,1.8-5.9,4.6-7.9,8.4c-2,3.8-4,9.3-5.8,16.6L2199.7,265.1z"/>
	<path class="st0" d="M2349,367.9l4.5-8.5c8.1,2,14,2.5,17.6,1.5c3.6-1,6.9-3.3,9.9-7.1c3-3.8,6.7-9.9,11.3-18.5l80.2-150
		c4.3-8,7.1-13.9,8.5-17.9c1.4-4,1.9-7.3,1.7-10c-0.2-2.7-1.1-5.3-2.7-7.7c-1.5-2.4-4.6-5.7-9.1-10.1l4.5-8.5l94.6,50.6
		c18.3,9.8,32,19.7,41,29.5c9,9.9,14.2,20.1,15.5,30.7c1.3,10.6-1.3,21.9-7.8,34.1c-5.4,10.1-12,17.8-19.8,23.1
		c-7.8,5.3-16.1,8.8-25,10.3c-8.8,1.5-19.2,1.7-31.3,0.7l-0.8,1.6c13.1,13.1,21.1,26.8,23.9,41c2.8,14.2,0.5,28.1-6.8,41.8
		c-8.4,15.7-18.8,26.7-31,32.9c-12.3,6.2-25.9,8.2-40.9,5.9c-15-2.3-31.4-8.2-49.2-17.7L2349,367.9z M2410.4,379.5
		c8,5.3,17.2,10.7,27.5,16.3c15.1,8.1,27.9,12.4,38.3,13.1c10.4,0.7,19.5-1.7,27.2-7.2c7.7-5.5,14.6-13.8,20.6-25
		c6-11.2,8.9-21.6,8.7-31c-0.2-9.5-3.6-18.3-10.2-26.4c-6.6-8.1-17.4-16.2-32.4-24.2l-26.8-14.3L2410.4,379.5z M2501.7,281.6
		c17.5,9.4,33.2,12.3,47,8.8c13.8-3.5,25.1-13.4,33.7-29.6c4.3-8,6.5-15.3,6.7-21.9c0.2-6.6-1.1-12.7-4-18.3
		c-2.9-5.6-7.1-10.7-12.6-15.3c-5.5-4.7-11.9-8.9-19.2-12.8c-4.4-2.3-10.2-5.3-17.5-8.9c-7.3-3.6-12.8-6.2-16.5-7.9l-48,89.8
		L2501.7,281.6z"/>
	<path class="st0" d="M2630.2,538.2l-64.9-49.4l5.8-7.7c6.4,2.8,11.5,4,15.2,3.8c3.7-0.2,7.3-1.7,10.8-4.4
		c3.5-2.7,7.5-7.1,12.1-13.2l71.9-94.5c4.7-6.2,7.9-11.2,9.5-15.1c1.7-3.9,2.2-7.7,1.5-11.3c-0.7-3.6-3.3-8.3-7.9-13.9l5.7-7.5
		l75.9,57.7c15.4,11.7,26.5,22.8,33.1,33.4c6.7,10.5,9.6,20.5,8.8,30s-4.9,19.1-12.3,28.8c-3.6,4.7-7.4,8.4-11.5,11.2
		c-4.1,2.8-8.4,4.8-13,6.3c-4.6,1.4-9.6,2.2-14.8,2.3c-5.3,0.1-10.6-0.3-16.1-1.2c-5.5-0.9-12.4-2.7-20.9-5.4l-0.9,1.5
		c3.3,5.6,5.4,11.7,6.5,18.2c1.1,6.5,1.2,14.7,0.4,24.6l-2.8,30.5c-0.7,7.2-1,13-0.7,17.3c0.2,4.4,1,8.3,2.3,11.7
		c1.3,3.4,3.8,7.1,7.3,11.1l-5.8,7.7l-39.8-30.3c0-9.5,1.2-22.2,3.6-38.1l4.3-31.3c1.3-9.4,1.6-16.6,0.9-21.6c-0.6-5-2-9.3-4.2-12.7
		c-2.2-3.5-6.4-7.6-12.7-12.4l-14.2-10.8l-22.9,30c-6.4,8.3-10.5,14.8-12.5,19.4c-2,4.6-2.5,8.8-1.5,12.8c1,4,4.2,8.9,9.6,14.8
		L2630.2,538.2z M2724.8,372.8l-51.7,67.9l22.5,17.1c14.2,10.8,26.9,15.9,38.3,15.3c11.4-0.6,21.5-6.8,30.5-18.5
		c6.3-8.3,9.7-16.3,10.2-23.8c0.4-7.5-1.6-14.5-6-21c-4.4-6.5-11-13.1-19.8-19.7C2740,383.3,2732,377.6,2724.8,372.8z"/>
	<path class="st0" d="M2919.5,537.9l-53.4,52.3l21.8,22.3c3.6,3.6,6.8,6,9.8,7.2c2.9,1.1,6.1,1.3,9.6,0.5c3.4-0.8,8-2.8,13.7-6
		l11.9,12.2l-43.6,42.6l-11.9-12.2c2.9-4.9,4.9-9.1,6-12.7c1.1-3.6,1.2-6.9,0.3-9.8c-0.8-2.9-3.3-6.4-7.3-10.6l-21.8-22.3
		l-59.1,57.9l34.3,35c4.4,4.5,8.2,7.8,11.5,10c3.3,2.2,6.7,3.4,10.2,3.8c3.5,0.4,7.7-0.2,12.6-1.6c4.9-1.4,12.5-4.7,22.8-9.8
		l12.9,13.2l-41.8,36.3l-113.6-116.1l6.9-6.7c6,3.7,10.8,5.7,14.5,6c3.7,0.3,7.5-0.6,11.3-2.8c3.8-2.2,8.4-5.9,13.9-11.3l84.7-82.9
		c5.5-5.4,9.4-9.9,11.6-13.6c2.2-3.6,3.3-7.3,3.1-11c-0.1-3.7-2.1-8.7-5.8-14.9l6.9-6.7L3004.9,602l-34.3,33.6l-12.9-13.2
		c4.1-8.4,6.7-15.2,7.8-20.4c1.1-5.2,1-9.8-0.4-13.8c-1.4-3.9-4.5-8.4-9.2-13.2L2919.5,537.9z"/>
	<path class="st0" d="M3108.7,806.7l-167.2,46.9l-16.5-24.4l106.6-134.7c6.1-7.8,10.2-13.6,12.3-17.6c2.1-3.9,3.2-7.4,3.5-10.4
		c0.3-3-0.5-6.9-2.2-11.5l8-5.4l44.3,65.4l-8,5.4c-5.6-5.4-10.1-8.5-13.8-9.3c-3.6-0.8-7.5,0.3-11.8,3.1c-2.9,2-5.8,4.4-8.5,7.2
		c-2.8,2.8-5.8,6.3-9.2,10.5l-77.3,94.1l170.2-49.5l18,26.6l-115.5,130.6l116.4-29.4c4.5-1.1,9-2.5,13.7-4.1
		c4.7-1.6,8.7-3.5,12.1-5.8c4.6-3.1,7.3-6.7,8.1-10.8c0.8-4.1-0.1-9.5-2.9-16.2l8-5.4l39.2,57.8l-8,5.4c-2.8-2.5-5.1-4.3-7-5.2
		c-1.8-1-4-1.6-6.6-2c-2.6-0.4-6.1-0.4-10.6,0.1c-4.5,0.5-11.2,1.7-19.9,3.7l-170.5,38.2l-16.4-24.2L3108.7,806.7z"/>
	<path class="st0" d="M3104.7,1135.4l-33.6-71.1l8.7-4.1c4.4,5.4,8.4,8.9,11.8,10.4c3.4,1.5,7.3,1.9,11.6,1
		c4.3-0.8,9.9-2.8,16.8-6.1l107.2-50.6c7-3.3,12.1-6.3,15.4-9c3.3-2.7,5.5-5.8,6.6-9.4c1.1-3.5,0.9-8.9-0.6-16l8.7-4.1l33.6,71.1
		l-8.7,4.1c-4.6-5.8-8.6-9.3-12-10.7c-3.4-1.4-7.2-1.6-11.5-0.7c-4.3,0.9-9.8,2.9-16.6,6.1l-107.2,50.6c-7,3.3-12.2,6.3-15.5,9.1
		c-3.3,2.8-5.5,6-6.5,9.7c-1,3.7-0.8,8.8,0.6,15.6L3104.7,1135.4z"/>
	<path class="st0" d="M3225.8,1312.7c6.8-2.8,13.3-5.3,19.6-7.4c6.2-2.2,12.4-4.3,18.5-6.3l65-21.3c7.3-2.4,12.8-4.8,16.5-7.1
		c3.6-2.4,6.2-5.3,7.7-8.8c1.5-3.5,1.9-8.7,1.3-15.5l9.2-3l21,64.1l-9.2,3c-3.8-6.1-7.2-10-10.4-12c-3.2-1.9-7-2.7-11.3-2.4
		c-4.4,0.3-10.2,1.7-17.4,4l-155.5,50.8l-6.8-20.9l114.2-147.3c3.3-4.2,7.1-8.6,11.3-13l-0.4-1.3c-6.8,2.8-13.3,5.3-19.6,7.4
		c-6.3,2.2-12.4,4.3-18.5,6.3l-79.4,26c-7.4,2.4-12.8,4.8-16.5,7.1c-3.6,2.4-6.2,5.3-7.7,8.8c-1.5,3.5-1.9,8.7-1.3,15.5l-9.2,3
		l-21-64.1l9.2-3c3.7,5.9,7.2,9.9,10.4,11.8c3.2,1.9,7,2.7,11.4,2.5c4.4-0.3,10.2-1.6,17.4-3.9l112.7-36.8c7.3-2.4,12.8-4.7,16.4-7
		c3.6-2.3,6.2-5.1,7.7-8.5c1.5-3.4,2-8.7,1.4-15.9l9.2-3l17.9,54.8l-90,113.2c-9.9,12.4-17.9,22.1-24.1,28.9L3225.8,1312.7z"/>
	<path class="st0" d="M3224,1575.2l-5.2-12.5l9.7-15.3c-5.4-7.1-9.6-14-12.6-20.9s-5.4-15.5-7.1-25.8c-4.7-28.9,0.5-52,15.5-69.2
		c15-17.2,39.6-28.5,73.8-34.1c21.4-3.4,40.7-2.6,58,2.7c17.3,5.2,31.5,14.5,42.5,27.7c11,13.3,18.2,29.9,21.4,49.9
		c1.7,10.3,2.7,20.5,3.1,30.4c0.4,9.9-0.1,21-1.6,33.1l-46.2,7.5l-2.9-18c9.4-5.1,16.6-10.4,21.5-16c4.9-5.6,8.1-11.4,9.4-17.5
		c1.3-6.1,1.3-13.3,0-21.6c-1.8-11.2-6.7-20.6-14.7-28c-8-7.5-18.9-12.5-32.7-15c-13.8-2.5-30.1-2.3-48.9,0.7
		c-13.3,2.2-25.4,5.2-36.2,9c-10.8,3.9-19.8,8.6-27.1,14.3c-7.2,5.7-12.5,12.3-15.8,19.8c-3.3,7.6-4.2,16.1-2.6,25.7
		c2,12.5,5.8,21.4,11.5,26.7s13.7,7,24.4,5.3l7.6-1.2c7.8-1.3,13.6-2.7,17.6-4.3c4-1.6,6.9-4,8.8-7.1c1.9-3.1,3.1-8.2,3.7-15.3
		l9.5-1.5l11.8,73.2l-9.5,1.5c-2.6-5.2-5.2-8.7-7.9-10.6c-2.7-1.9-6.1-3.1-10.3-3.3c-4.2-0.3-10.2,0.3-18.3,1.6L3224,1575.2z"/>
</g>
</svg>
